<svg version="1.1" xmlns="http://www.w3.org/2000/svg" style="display: block;" viewBox="0 0 2048 2048" width="1024" height="1024" preserveAspectRatio="none">
<path transform="translate(0,0)" fill="rgb(27,30,45)" d="M 0 0 L 2048 0 L 2048 2048 L 0 2048 L 0 0 z"/>
<path transform="translate(0,0)" fill="rgb(69,96,112)" d="M 321.71 1217.41 C 349.71 1216.04 387.588 1217.11 416.281 1217.1 L 606.423 1217.21 L 734.854 1217.2 C 756.92 1217.19 780.027 1216.53 801.984 1217.72 C 811.77 1218.4 820.708 1222.04 828.616 1227.71 C 855.427 1246.93 850.141 1285.79 850.055 1314.44 L 849.899 1402.49 L 850.065 1509.43 C 850.09 1527.62 850.713 1546.84 849.322 1564.95 C 847.36 1590.5 827.512 1609.06 802.25 1611.98 C 770.835 1613.5 731.663 1612.43 699.6 1612.42 L 512.39 1612.41 L 384.311 1612.36 C 362.4 1612.35 339.666 1613.03 318.061 1611.75 C 293.084 1610.27 272.757 1588.4 271.043 1563.93 C 269.877 1547.28 270.297 1530.32 270.337 1513.67 L 270.465 1423.54 L 270.272 1321.07 C 270.237 1277.97 262.048 1222.77 321.71 1217.41 z"/>
<path transform="translate(0,0)" fill="rgb(27,30,45)" d="M 319.915 1225.31 C 335.609 1223.79 379.606 1225.01 397.46 1225.03 L 556.084 1225.05 L 719.103 1225.03 C 746.058 1225.02 773.282 1224.37 800.161 1225.47 C 823.089 1226.41 841.005 1245.88 841.909 1268.52 C 842.606 1285.99 842.288 1303.45 842.206 1320.92 L 842.081 1413.7 L 842.174 1512.24 C 842.164 1552.71 850.947 1601.4 794.786 1604.49 C 757.863 1605.06 719.336 1604.49 682.301 1604.46 L 484.586 1604.41 L 377.693 1604.47 C 357.989 1604.49 337.874 1604.82 318.522 1603.89 C 300.43 1603.02 281.725 1586.03 279.359 1568.35 C 277.367 1553.47 278.159 1534.96 278.171 1519.83 L 278.203 1435 L 278.174 1326.37 C 278.172 1306.89 277.736 1287.4 278.85 1267.96 C 280.215 1244.12 296.873 1228.65 319.915 1225.31 z"/>
<path transform="translate(0,0)" fill="rgb(91,118,129)" d="M 553.071 1293.21 C 569.806 1291.82 575.747 1294.69 581.571 1310.82 C 595.566 1310.49 599.73 1308.74 606.751 1322.18 C 631.032 1321.82 645.977 1320.58 645.97 1350.02 C 645.881 1402.41 646.808 1455.29 645.564 1507.61 C 645.088 1527.64 616.987 1525.58 603.693 1525.32 C 592.008 1525.1 580.176 1525.21 568.5 1525.15 C 546.097 1525.06 523.456 1525.66 501.029 1525.39 C 471.671 1525.64 474.084 1505.45 474.723 1483.06 C 476.097 1434.96 472.641 1384.34 475.139 1336.4 C 478.798 1329.74 480.376 1328.45 486.268 1323.76 C 496.158 1321.71 505.769 1323.08 514.347 1321.3 C 520.142 1308.28 524.582 1310.94 538.062 1310.53 C 542.975 1301.05 543.843 1298.68 553.071 1293.21 z"/>
<path transform="translate(0,0)" fill="rgb(27,30,45)" d="M 514.06 1331.96 C 514.287 1336.87 515.798 1347.95 521.718 1348.43 C 536.628 1349.65 589.029 1352.56 600.488 1347.62 C 605.88 1342.29 605.504 1339.51 606.435 1331.93 C 612.843 1331.77 631.512 1330.58 633.354 1335.4 C 638.251 1348.2 636.217 1388.22 636.225 1401.33 C 636.424 1436.55 636.345 1471.76 635.99 1506.97 C 634.763 1510.81 632.09 1514.88 627.73 1515.02 C 586.465 1516.33 545.007 1515.4 503.708 1515.53 C 495.697 1515.56 491.593 1516.11 485.854 1510.21 C 484.748 1505.94 484.128 1500.75 484.137 1496.31 C 484.236 1455.62 484.231 1414.93 484.145 1374.25 C 484.121 1362.81 483.828 1350.83 484.975 1339.46 C 485.32 1336.04 488.893 1333.91 491.533 1332.14 C 498.784 1331.88 506.749 1332 514.06 1331.96 z"/>
<path transform="translate(0,0)" fill="rgb(91,118,129)" d="M 582.007 1386.32 L 583.017 1386.37 C 599.369 1387.29 614.773 1393.75 612.364 1414.24 C 606.459 1440.83 579.799 1434.75 556.31 1434.75 C 544.916 1434.75 509.111 1431.3 525.834 1461 C 528.889 1466.42 549.068 1465.03 556.855 1464.85 C 552.706 1460.68 549.197 1458.02 548.574 1451.98 L 549.97 1450.6 C 558.202 1450.43 569.804 1461.74 572.165 1469.4 C 572.575 1470.73 571.035 1472.28 570.234 1473.52 C 565.567 1478.84 556.907 1489.66 548.919 1488.1 L 548.409 1486.85 C 549.416 1481.1 552.89 1478.36 556.893 1474.17 C 546.929 1474.28 533.711 1475.52 524.674 1471.61 C 513.02 1466.57 508.708 1447.72 515.129 1437.5 C 529.6 1414.47 569.512 1430.65 591.879 1424.66 C 597.064 1423.27 600.532 1419.31 602.846 1414.7 C 608.775 1401.88 591.577 1396.96 582.536 1394.75 C 580.132 1394.16 579.739 1392.66 579.07 1390.82 C 580.056 1387.41 579.209 1388.91 582.007 1386.32 z"/>
<path transform="translate(0,0)" fill="rgb(91,118,129)" d="M 588.75 1451.54 C 595.258 1449.18 602.536 1450.49 607.808 1454.98 C 613.079 1459.47 615.531 1466.45 614.228 1473.25 C 612.924 1480.05 608.066 1485.63 601.508 1487.85 C 591.522 1491.23 580.672 1485.95 577.176 1476.01 C 573.681 1466.06 578.842 1455.15 588.75 1451.54 z"/>
<path transform="translate(0,0)" fill="rgb(27,30,45)" d="M 592.398 1460.53 C 597.258 1458.85 602.579 1461.3 604.464 1466.08 C 606.349 1470.87 604.128 1476.29 599.428 1478.37 C 596.205 1479.8 592.457 1479.35 589.667 1477.19 C 586.877 1475.04 585.493 1471.53 586.063 1468.05 C 586.634 1464.57 589.066 1461.68 592.398 1460.53 z"/>
<path transform="translate(0,0)" fill="rgb(91,118,129)" d="M 551.522 1371.4 C 559.391 1373.24 569.115 1384.98 573.698 1391.52 C 569.348 1397.6 557.414 1411.68 549.25 1410.53 L 548.665 1409.09 C 549.501 1403.54 553.622 1399.84 557.33 1395.85 L 543.087 1396.1 C 535.422 1396.24 507.018 1398.97 505.083 1390.99 L 506.687 1388.38 C 511.787 1385.47 548.335 1386.62 556.739 1386.67 C 551.317 1381.15 546.763 1378.83 551.522 1371.4 z"/>
<path transform="translate(0,0)" fill="rgb(27,30,45)" d="M 556.954 1301.88 C 570.519 1302.01 570.966 1308.09 572.389 1319.63 C 579.014 1320.17 589.056 1320 595.934 1320.1 C 596.357 1326.26 596.111 1333.68 596.051 1339.96 L 565.25 1340.02 L 524.785 1339.95 C 524.351 1332.7 524.467 1327.41 524.724 1320.13 C 563.226 1320.2 537.792 1314.45 556.954 1301.88 z"/>
<path transform="translate(0,0)" fill="rgb(38,52,60)" d="M 1253.95 1217.45 L 1561.71 1217.19 L 1670 1217.17 C 1690.34 1217.14 1713.19 1215.93 1733.1 1218.23 C 1762.18 1221.6 1777.09 1247.62 1777.48 1274.59 C 1777.81 1298.13 1777.81 1320.83 1777.76 1344.07 L 1777.59 1461.03 L 1777.7 1527.07 C 1777.71 1540.61 1778.63 1556.78 1776.24 1569.97 C 1771.39 1596.8 1749.11 1611.33 1723.37 1611.99 L 1388.23 1611.97 L 1294.38 1612.05 C 1281.31 1612.07 1255.47 1612.77 1243.32 1611.2 C 1233.14 1609.95 1223.59 1605.62 1215.94 1598.79 C 1196.38 1581.63 1198.7 1562.5 1198 1538.89 C 1197.42 1519.38 1198.03 1499.98 1198.12 1480.48 L 1198.22 1365.8 L 1198.12 1303.69 C 1198.07 1290.78 1197.03 1275.74 1199.09 1263.15 C 1204.16 1232.12 1225.02 1219.07 1253.95 1217.45 z"/>
<path transform="translate(0,0)" fill="rgb(27,30,45)" d="M 1244.26 1226.25 C 1259.59 1224.72 1298.39 1225.94 1315.34 1225.95 L 1458.34 1225.87 L 1638.02 1225.99 C 1665.39 1225.98 1703.48 1224.61 1729.66 1226.21 C 1736.51 1226.68 1743.14 1228.85 1748.94 1232.52 C 1773.5 1247.88 1769.11 1276.12 1769.08 1300.94 L 1769.13 1375.23 L 1769.14 1500.38 C 1769.17 1522.65 1769.91 1545.89 1768.56 1568.05 C 1767.36 1587.78 1747.93 1600.46 1730.23 1603.92 C 1703.83 1605.28 1667.2 1604.17 1640.32 1604.15 L 1471.99 1604.15 L 1327.05 1604.22 C 1300.27 1604.27 1273.37 1604.65 1246.64 1603.9 C 1235.32 1603.58 1223.32 1597.28 1216.31 1588.59 C 1213.26 1584.82 1207.68 1575.79 1207.3 1570.96 C 1205.16 1543.95 1206.5 1516.18 1206.33 1488.98 L 1206.01 1345.31 C 1205.98 1319.12 1205.42 1292.68 1206.66 1266.54 C 1207.66 1245.22 1223.82 1229.91 1244.26 1226.25 z"/>
<path transform="translate(0,0)" fill="rgb(38,52,60)" d="M 1250.37 1230.24 C 1270.4 1228.55 1312.08 1229.86 1334.09 1229.88 L 1499.12 1229.88 L 1650 1229.89 C 1674.57 1229.89 1700.4 1229.41 1724.95 1230.26 C 1734.06 1230.99 1742.53 1234.45 1749.57 1240.29 C 1770.64 1257.74 1765.09 1298.56 1765.04 1323.24 L 1764.88 1420.89 L 1765.08 1512.33 C 1765.14 1534.14 1769.42 1566.75 1754.42 1583.91 C 1746.11 1593.42 1735.77 1598.13 1723.25 1599.08 C 1691.56 1600.52 1653.28 1599.46 1621.17 1599.49 L 1436.2 1599.58 L 1316.78 1599.51 C 1294.3 1599.51 1271.45 1599.73 1249.03 1598.55 C 1232.24 1597.67 1214.12 1581.13 1212.13 1564.35 C 1210.4 1549.74 1210.95 1533.04 1210.94 1518.13 L 1210.89 1436.1 L 1210.98 1329.35 C 1211 1310.13 1210.69 1291.06 1211.68 1271.85 C 1212.9 1247.85 1227.18 1234.37 1250.37 1230.24 z"/>
<path transform="translate(0,0)" fill="rgb(91,118,129)" d="M 1462.05 1283.13 L 1526.76 1283.18 L 1643.02 1541.38 L 1579.11 1541.7 C 1570.99 1522.49 1562.69 1503.36 1554.2 1484.31 L 1528.5 1484.51 C 1498.34 1484.96 1464.11 1484.99 1434.04 1484.32 C 1426.27 1503.38 1417.83 1522.28 1409.93 1541.37 L 1346.75 1541.62 L 1402 1418.38 C 1422.04 1373.81 1443.12 1328.05 1462.05 1283.13 z"/>
<path transform="translate(0,0)" fill="rgb(38,52,60)" d="M 1494.13 1340.73 C 1498.8 1349.88 1505.25 1366.62 1509.3 1376.35 L 1534.8 1437.01 L 1497.25 1437.17 L 1454.37 1437.04 C 1466.86 1405.29 1481.1 1372.44 1494.13 1340.73 z"/>
<path transform="translate(0,0)" fill="rgb(69,96,112)" d="M 1239.92 349.23 C 1261.21 347.6 1300.17 348.879 1322.99 348.887 L 1484.35 348.816 L 1647.15 348.799 C 1675.75 348.782 1704.5 348.469 1733.09 349.216 C 1739.77 349.39 1748.24 353.66 1753.99 357.098 C 1782.56 374.174 1777.25 409.921 1777.2 438.193 L 1777.2 518.155 L 1777.29 621.07 C 1777.33 662.465 1787.03 712.079 1734.58 723.876 C 1712.63 725.804 1679.2 724.715 1656.15 724.702 L 1514.78 724.654 L 1340.77 724.698 C 1309.47 724.704 1277.7 725.07 1246.43 724.19 C 1237.66 723.943 1232.49 722.619 1224.67 718.53 C 1212.42 712.145 1203.33 701.002 1199.55 687.717 C 1196.26 676.157 1197.29 632.921 1197.26 618.605 L 1197.23 497.112 C 1197.3 464.618 1196.74 432.046 1197.7 399.588 C 1198.49 372.922 1215.04 355.694 1239.92 349.23 z"/>
<path transform="translate(0,0)" fill="rgb(27,30,45)" d="M 1240.76 357.156 C 1265.39 355.738 1300.05 356.747 1325.3 356.747 L 1481.58 356.764 L 1643.18 356.742 C 1671.19 356.715 1699.25 356.584 1727.21 356.898 C 1744.87 357.096 1763.54 369.311 1766.85 387.259 C 1770.83 408.825 1769.24 433.851 1769.23 455.952 L 1769.16 570.801 L 1769.17 637.91 C 1769.32 671.805 1775.79 705.982 1733.27 715.897 C 1710.44 717.78 1676.87 716.745 1652.95 716.743 L 1512.6 716.756 L 1339.54 716.752 C 1310.07 716.758 1280.27 716.99 1251.09 716.547 C 1222.72 716.352 1206.04 698.435 1205.36 670.799 C 1204.84 649.335 1205.09 627.71 1205.11 606.171 L 1205.18 504.289 L 1205.18 439.297 C 1205.1 404.237 1198.77 369.614 1240.76 357.156 z"/>
<path transform="translate(0,0)" fill="rgb(91,118,129)" d="M 1372.78 458.13 C 1392.36 456.917 1419.26 457.48 1439.08 458.038 C 1447.55 465.204 1472.53 489.928 1479.36 498.624 C 1480.51 526.41 1480.45 571.542 1478.65 600.249 C 1478.33 605.289 1471.84 609.614 1467.38 611.923 C 1438.91 614.749 1401.98 612.144 1373.14 611.204 C 1366.9 611 1361.14 600.144 1361.19 594.226 C 1361.52 552.599 1359.41 510.295 1362.22 468.849 C 1362.53 464.296 1369.37 460.08 1372.78 458.13 z"/>
<path transform="translate(0,0)" fill="rgb(27,30,45)" d="M 1376.01 467.302 C 1393.97 466.943 1412.8 467.189 1430.83 467.145 C 1430.1 507.008 1430.29 507.27 1469.96 506.678 C 1469.05 534.354 1470.57 563.242 1469.92 590.998 C 1469.77 597.041 1468.99 599.057 1464.65 602.854 C 1453.28 602.831 1378.01 604.089 1373.96 600.826 C 1370.34 591.829 1370.88 579.719 1370.95 569.935 C 1371.19 537.559 1370.25 504.968 1371.37 472.629 C 1371.45 470.273 1374.27 468.53 1376.01 467.302 z"/>
<path transform="translate(0,0)" fill="rgb(91,118,129)" d="M 1387.91 547.018 C 1401.72 546.214 1435.78 546.439 1450.78 547.313 C 1451.57 547.882 1452.36 548.452 1453.15 549.021 C 1454.26 551.824 1453.57 553.03 1452.76 555.971 C 1443.01 556.674 1392.9 557.619 1387.83 554.098 C 1386.55 550.324 1386.96 551.47 1387.91 547.018 z"/>
<path transform="translate(0,0)" fill="rgb(91,118,129)" d="M 1388.19 525.07 C 1396.69 524.621 1448.13 523.256 1452.36 526.41 C 1453.72 530.279 1453.21 529.367 1452.38 533.994 C 1443.6 534.508 1392.44 535.871 1388.2 531.989 C 1386.99 528.331 1387.4 529.341 1388.19 525.07 z"/>
<path transform="translate(0,0)" fill="rgb(91,118,129)" d="M 1390.12 568.445 C 1400.74 568.198 1416.85 567.132 1427.18 569.554 C 1429.53 570.104 1429.6 571.238 1430.49 573.079 C 1429.54 576.515 1430.33 574.895 1427.39 577.745 C 1418.84 577.829 1391.54 580.231 1387.05 573.449 C 1387.76 569.701 1386.97 571.42 1390.12 568.445 z"/>
<path transform="translate(0,0)" fill="rgb(27,30,45)" d="M 1440.2 472.536 C 1442.5 474.03 1461.93 493.453 1465.6 496.969 C 1457.47 497.035 1449.33 496.944 1441.2 496.696 C 1440.16 488.765 1440.28 480.553 1440.2 472.536 z"/>
<path transform="translate(0,0)" fill="rgb(91,118,129)" d="M 1569.17 581.464 C 1579.24 581.514 1590.84 580.269 1600.61 581.719 C 1608.02 582.818 1610.01 585.339 1613.89 591.212 C 1614.31 602.682 1617.04 626.832 1610.76 635.547 C 1607.95 639.454 1604.15 640.046 1599.73 640.687 C 1563.4 641.011 1551.48 647.533 1554.58 601.462 C 1555.32 590.596 1557.62 583.322 1569.17 581.464 z"/>
<path transform="translate(0,0)" fill="rgb(27,30,45)" d="M 1565.23 591.257 C 1608.15 590.272 1606.97 585.337 1604.3 630.494 C 1598.67 631.866 1572.26 630.962 1565.19 630.802 C 1564.54 620.74 1564.09 601.046 1565.23 591.257 z"/>
<path transform="translate(0,0)" fill="rgb(91,118,129)" d="M 1566.33 505.366 C 1608.89 504.441 1620.94 498.983 1612.71 555.244 C 1612.08 559.543 1607.12 562.335 1603.45 564.012 C 1592.85 564.397 1579.81 565.394 1569.48 564.295 C 1561.76 563.473 1559.32 560.756 1555.07 554.842 C 1554.83 541.627 1554.81 528.41 1555.04 515.195 C 1558.72 509.466 1560.08 507.946 1566.33 505.366 z"/>
<path transform="translate(0,0)" fill="rgb(27,30,45)" d="M 1565.21 515.06 C 1575.03 514.974 1589.98 513.436 1599.05 515.06 C 1608.16 516.692 1605.39 548.434 1603.03 554.825 C 1591.61 555.068 1576.23 555.349 1565.1 554.376 C 1563.98 544.543 1564.19 524.846 1565.21 515.06 z"/>
<path transform="translate(0,0)" fill="rgb(91,118,129)" d="M 1569.23 429.497 C 1582.99 429.16 1613.83 423.82 1614.05 444.46 C 1614.2 459.546 1620.07 485.622 1599.61 488.41 L 1596.5 488.482 C 1548.04 489.578 1554.26 485.02 1555.1 439.359 C 1559.48 432.484 1561.17 430.558 1569.23 429.497 z"/>
<path transform="translate(0,0)" fill="rgb(27,30,45)" d="M 1565.17 439.015 C 1578.19 438.89 1591.26 438.605 1604.26 439.179 C 1604.97 448.566 1605.1 470.258 1603.45 478.703 C 1590.66 479.148 1577.89 478.951 1565.1 478.861 C 1564.19 467.533 1564.17 450.26 1565.17 439.015 z"/>
<path transform="translate(0,0)" fill="rgb(91,118,129)" d="M 1519.47 512.466 C 1526.32 516.94 1536.4 528.627 1542.01 534.918 C 1536.98 541.014 1523.53 557.568 1515.76 555.768 L 1515.55 554.742 L 1516.64 556.457 L 1515.58 554.043 C 1516.26 548.705 1517.93 547.282 1521.7 543.635 L 1523.79 541.472 C 1522.31 536.682 1501.01 542.877 1495.18 537.791 C 1493.51 534.693 1493.51 536.143 1494.31 533.353 C 1500.29 528.9 1517.63 530.295 1525.61 530.365 C 1521.94 526.509 1517.54 523.718 1515.88 518.905 C 1516.4 514.995 1516.45 516.031 1519.47 512.466 z"/>
<path transform="translate(0,0)" fill="rgb(69,96,112)" d="M 314.059 349.203 C 341.359 347.813 376.143 348.875 404.212 348.856 L 578.474 348.837 L 726.727 348.872 C 752.335 348.867 778.105 348.473 803.623 349.126 C 824.673 350.496 843.177 366.114 848.036 386.567 C 851.966 403.108 850.088 419.06 850.341 435.825 C 850.502 446.513 850.213 457.206 850.186 467.817 L 850.355 574.923 L 850.425 638.656 C 850.477 676.064 854.967 712.988 808.11 723.839 C 785.24 725.858 745.514 724.697 721.721 724.682 L 568.67 724.69 L 404.979 724.749 C 375.417 724.761 345.49 725.335 316.009 724.018 C 293.079 722.993 271.786 700.295 270.955 677.512 C 270.493 664.826 270.687 651.831 270.696 639.135 L 270.703 559.773 L 270.698 453.984 C 270.701 434.752 270.325 415.534 271.318 396.328 C 272.604 371.44 290.401 354.367 314.059 349.203 z"/>
<path transform="translate(0,0)" fill="rgb(27,30,45)" d="M 314.829 357.164 C 336.721 355.542 373.402 356.724 396.399 356.764 L 543.428 356.788 L 715.187 356.774 C 743.84 356.77 772.526 356.573 801.146 356.877 C 817.962 356.692 836.884 370.85 840.135 387.694 C 844.311 409.338 842.803 435.137 842.793 457.362 L 842.643 567.163 L 842.751 634.053 C 842.809 668.859 849.53 704.905 807.25 715.865 C 789.716 717.725 757.561 716.752 738.584 716.755 L 612.584 716.744 L 420.986 716.747 C 388.068 716.744 355.053 717.167 322.155 716.429 C 268.66 715.228 278.425 656.199 278.563 620.005 L 278.622 542.967 L 278.537 450.792 C 278.528 434.476 278.374 418.243 278.807 401.931 C 279.434 378.29 291.657 362.979 314.829 357.164 z"/>
<path transform="translate(0,0)" fill="rgb(91,118,129)" d="M 540.396 531.201 C 558.826 537.386 549.07 572.942 545.107 586.237 C 560.067 570.946 572.457 558.617 581.387 539.128 C 582.36 537.004 585.421 534.617 587.734 534.797 C 597.259 535.54 599.451 552.09 600.57 559.723 C 603.103 581.453 594.072 600.127 580.558 616.383 C 564.221 635.849 531.028 649.353 509.535 634.221 C 465.72 603.377 496.765 540.988 540.396 531.201 z"/>
<path transform="translate(0,0)" fill="rgb(27,30,45)" d="M 586.621 553.364 C 598.843 564.384 585.427 594.764 576.454 605.453 C 563.936 620.363 551.311 628.549 531.846 630.726 C 529.023 628.533 529.629 629.893 529.216 626.911 C 531.227 624.749 537.512 623.486 540.598 622.495 C 563.345 615.192 578.503 595.433 583.119 572.412 C 584.287 566.586 584.913 560.335 586.382 554.312 L 586.621 553.364 z"/>
<path transform="translate(0,0)" fill="rgb(91,118,129)" d="M 616.307 430.339 C 621.939 429.765 626.144 429.263 631.282 431.62 C 632.966 433.922 633.289 433.664 633.21 436.808 C 632.556 462.791 619.559 485.104 593.087 491.732 C 585.072 493.739 579.685 494.016 571.222 494.312 C 569.704 512.331 573.145 533.746 566.832 549.467 C 566.011 551.512 560.46 557.733 558.714 559.716 C 560.928 541.401 561.169 528.158 559.009 509.959 C 553.729 509.972 548.059 509.325 542.764 508.863 C 532.052 506.699 525.85 503.315 517.694 495.832 C 510.049 488.818 496.486 465.898 505.873 457.154 C 513.936 454.935 525.557 455.781 533.321 458.441 C 549.99 464.151 555.804 473.624 563.229 487.932 C 568.216 455.489 581.439 435.292 616.307 430.339 z"/>
<path transform="translate(0,0)" fill="rgb(27,30,45)" d="M 616.618 440.272 C 619.186 439.939 619.197 440.012 621.785 440.406 C 626.362 447.236 617.615 462.023 613.193 467.643 C 604.304 478.94 593.959 482.775 580.253 484.708 C 577.736 485.021 578.146 484.938 575.58 484.712 L 574.591 483.012 C 573.621 460.658 595.804 443.386 616.618 440.272 z"/>
<path transform="translate(0,0)" fill="rgb(27,30,45)" d="M 512.832 464.887 C 537.158 465.004 551.346 476.587 555.708 500.388 C 530.546 500.892 518.286 488.227 512.832 464.887 z"/>
<path transform="translate(0,0)" fill="rgb(164,182,203)" d="M 1619.15 1115.7 L 1619.51 1114.14 C 1634.98 1045.92 1626.16 953.239 1609.9 885.533 C 1608.24 878.633 1598.67 854.243 1603.72 850.813 L 1605.95 850.921 C 1610.16 856.221 1614.16 873.8 1616.03 880.994 C 1633.25 947.801 1638.27 1017.17 1630.84 1085.76 C 1627.05 1118.76 1621.02 1145.52 1612.89 1177.42 C 1618.17 1173.99 1630.96 1164.3 1635.98 1165 L 1637.45 1166.88 C 1636.78 1170.54 1635.5 1171.25 1631.74 1173.63 C 1624.87 1178.01 1612.52 1187.64 1605.01 1189.34 C 1600.23 1185.39 1586.29 1157.6 1588.47 1151.9 C 1590.27 1150.59 1590.14 1150.68 1592.34 1150.26 C 1596.81 1152.8 1598.64 1159.15 1600.84 1164.17 C 1618.04 1148.1 1611.76 1122.26 1619.15 1115.7 z"/>
<path transform="translate(0,0)" fill="rgb(69,96,112)" d="M 1600.84 1164.17 C 1618.04 1148.1 1611.76 1122.26 1619.15 1115.7 C 1618 1130.58 1609.6 1162.06 1604.94 1176.79 C 1602.01 1170.41 1596.86 1158.1 1592.35 1153.05 L 1588.47 1151.9 C 1590.27 1150.59 1590.14 1150.68 1592.34 1150.26 C 1596.81 1152.8 1598.64 1159.15 1600.84 1164.17 z"/>
<path transform="translate(0,0)" fill="rgb(164,182,203)" d="M 442.613 852.789 L 444.567 853.43 C 449.094 858.571 461.237 883.651 458.967 890.081 L 457.303 890.627 C 452.428 887.8 446.792 872.777 443.788 866.47 C 412.608 964.537 414.602 1081.22 444.525 1179.15 C 445.814 1183.37 447.367 1188.01 446.3 1192.31 C 443.941 1192.14 441.487 1191.91 440.598 1189.28 C 405.194 1084.4 407.2 971.592 435.9 865.802 C 430.322 869.366 417.504 878.44 411.433 877.421 C 412.43 869.721 435.922 856.652 442.613 852.789 z"/>
<path transform="translate(0,0)" fill="rgb(164,182,203)" d="M 874.272 1505.52 C 879.834 1500.8 902.538 1485.06 909.143 1487.87 C 906.965 1493.84 894.296 1500.63 888.456 1504.18 C 966.341 1525.67 1087.01 1524.92 1165.41 1509.45 C 1170.27 1508.49 1173.39 1507.57 1177.46 1510.36 L 1177.72 1512.65 L 1176.04 1514.15 C 1101.9 1532.57 1006.7 1530.14 931.531 1519.95 C 920.734 1523.06 903.379 1512.52 896.552 1520.38 C 896.318 1528.15 901.218 1526.25 902.379 1532.99 L 901.002 1535.65 C 898.799 1536.7 899.597 1536.4 897.097 1536.68 C 890.755 1532.54 877.931 1512.61 874.272 1505.52 z"/>
<path transform="translate(0,0)" fill="rgb(69,96,112)" d="M 886.204 1511.73 C 901.195 1514.86 916.467 1516.91 931.531 1519.95 C 920.734 1523.06 903.379 1512.52 896.552 1520.38 C 896.318 1528.15 901.218 1526.25 902.379 1532.99 L 901.002 1535.65 C 899.612 1529.59 890.31 1517.93 886.204 1511.73 z"/>
<path transform="translate(0,0)" fill="rgb(164,182,203)" d="M 1141.95 1392.42 C 1150.96 1393.65 1168.69 1406.85 1175.82 1412.77 C 1172.8 1418.91 1157.07 1442.52 1150.3 1441.16 C 1149.76 1434.98 1158.47 1424.87 1162.34 1419.74 C 1075.29 1429.75 1005.27 1434.64 916.759 1421.55 C 908.104 1420.59 876.556 1417.23 871.972 1411.02 L 872.844 1409.2 C 877.347 1406.72 900.873 1412.13 908.032 1413.21 C 929.445 1416.35 950.967 1418.68 972.554 1420.21 C 1024.64 1423.88 1109.91 1422.78 1161.59 1411.54 C 1155.79 1406.69 1148.58 1403.39 1143.07 1398.24 C 1141.22 1396.51 1141.87 1395.27 1141.95 1392.42 z"/>
<path transform="translate(0,0)" fill="rgb(164,182,203)" d="M 1145.63 516.383 C 1152.64 517.721 1170.92 536.655 1175.81 542.74 C 1171.52 548.561 1152.67 568.449 1145.79 566.46 C 1146.15 560.244 1157.55 550.883 1162.42 546.371 C 1084.48 545.018 1003.65 546.043 925.5 546.032 C 917.076 546.084 873.507 548.642 872.069 541.665 L 873.47 540.048 C 880.224 537.699 944.798 538.918 955.463 538.917 L 1162.42 539.023 C 1157.39 533.822 1151.27 529.352 1146.68 523.687 C 1144.29 520.741 1145.1 519.774 1145.63 516.383 z"/>
<path transform="translate(0,0)" fill="rgb(253,252,253)" d="M 1577.77 776.583 C 1580.12 777.388 1580.59 778.322 1582.13 780.223 C 1602.05 773.125 1608.68 781.836 1604.35 801.867 C 1603.38 806.351 1598.63 809.005 1594.95 810.965 C 1588.93 810.746 1587.12 809.402 1582.2 806.235 C 1582.26 810.221 1582.91 819.222 1581.15 822.166 L 1578.28 821.871 C 1575.74 817.883 1576.79 782.43 1577.77 776.583 z"/>
<path transform="translate(0,0)" fill="rgb(27,30,45)" d="M 1590.09 780.64 C 1603.6 783.496 1604.83 799.262 1593.4 806.538 C 1577.96 804.542 1578.01 787.73 1590.09 780.64 z"/>
<path transform="translate(0,0)" fill="rgb(253,252,253)" d="M 551.812 765.13 C 554.302 765.822 553.585 765.523 555.739 766.755 C 557.805 773.427 557.171 801.93 555.845 809.347 L 553.904 810.302 L 552.645 809.644 C 551.951 807.442 552.329 807.685 550.99 806.031 C 544.554 811.761 543.615 811.435 535.535 809.543 C 521.313 798.088 530.961 766.606 549.66 779.865 L 550.536 780.499 C 552.211 777.312 551.738 769.32 551.812 765.13 z"/>
<path transform="translate(0,0)" fill="rgb(27,30,45)" d="M 539.88 780.856 C 554.602 781.113 555.167 798.03 546.235 806.277 C 530.327 806.21 530.067 789.05 539.88 780.856 z"/>
<path transform="translate(0,0)" fill="rgb(253,252,253)" d="M 597.453 776.222 C 600.731 777.629 600.595 777.034 602.141 780.556 C 606.939 778.508 611.403 775.208 616.413 777.97 C 629.872 785.387 627.886 806.157 612.831 810.885 C 608.326 810.223 608.057 809.873 604.005 807.42 L 602.92 806.75 C 600.289 808.464 604.371 817.866 600.017 822.397 L 597.943 821.81 C 596.061 818.159 596.849 782.282 597.453 776.222 z"/>
<path transform="translate(0,0)" fill="rgb(27,30,45)" d="M 609.029 780.686 C 612.171 781.386 614.728 781.951 616.92 784.48 C 619.451 787.455 620.602 791.364 620.086 795.235 C 619.373 800.877 617.63 803.043 613.312 806.28 C 597.978 805.05 597.443 787.685 609.029 780.686 z"/>
<path transform="translate(0,0)" fill="rgb(253,252,253)" d="M 1528.96 776.731 C 1531.43 777.885 1531.2 778.633 1533.06 780.617 C 1540.09 776.67 1553.43 775.507 1554.94 785.481 C 1556.93 798.679 1556.13 807.553 1542.47 811.002 C 1537.44 809.656 1536.79 809.033 1532.65 805.787 C 1532.6 812.095 1533.23 815.817 1530.94 821.786 L 1529.87 821.55 C 1527.19 813.799 1525.95 783.726 1528.96 776.731 z"/>
<path transform="translate(0,0)" fill="rgb(27,30,45)" d="M 1539.77 780.916 C 1543.85 781.706 1546.29 782.182 1548.79 785.88 C 1551.05 789.197 1551.78 793.322 1550.79 797.211 C 1549.51 802.46 1547.65 804.078 1543.28 806.549 C 1528.66 804.196 1528.53 787.833 1539.77 780.916 z"/>
<path transform="translate(0,0)" fill="rgb(253,252,253)" d="M 1399.95 776.612 L 1403.42 778.104 L 1404.32 780.967 L 1406.18 780.138 C 1431.5 768.302 1435.64 804.707 1414.83 810.906 C 1409.3 809.874 1408.49 808.962 1404.19 805.393 C 1404.34 810.047 1405.61 818.963 1402.17 822.067 L 1400.04 821.362 C 1398.42 815.185 1398.79 783.335 1399.95 776.612 z"/>
<path transform="translate(0,0)" fill="rgb(27,30,45)" d="M 1409.25 781.984 C 1424.5 779.788 1425.96 795.764 1417.57 805.564 C 1401.74 807.755 1400.22 791.229 1409.25 781.984 z"/>
<path transform="translate(0,0)" fill="rgb(253,252,253)" d="M 1261.04 765.222 L 1264.32 766.279 C 1266.86 771.201 1265.68 802.944 1264.82 809.59 C 1262.73 810.603 1263.85 810.342 1261.3 809.794 L 1260.69 807.105 C 1257.01 805.777 1257.63 812.095 1245.23 809.749 C 1231.7 798.502 1235.18 767.11 1260.33 780.641 C 1261.25 778.055 1261 768.574 1261.04 765.222 z"/>
<path transform="translate(0,0)" fill="rgb(27,30,45)" d="M 1250.08 780.697 C 1263.78 782.938 1264.84 799.095 1253.63 806.698 C 1239.31 804.323 1238.12 787.631 1250.08 780.697 z"/>
<path transform="translate(0,0)" fill="rgb(253,252,253)" d="M 395.962 1658.28 L 399.643 1659.49 C 401.719 1663.87 401.581 1700.63 399.066 1703.12 L 396.746 1702.77 L 395.719 1700.08 L 393.923 1699.95 C 387.122 1703.97 387.458 1703.92 379.687 1702.45 C 364.229 1687.8 377.101 1658.8 395.244 1673.97 C 396.437 1670.57 395.988 1662.29 395.962 1658.28 z"/>
<path transform="translate(0,0)" fill="rgb(27,30,45)" d="M 381.982 1674.92 C 398.612 1672.93 399.126 1689.2 390.571 1698.92 C 375.177 1700.19 373.903 1684.52 381.982 1674.92 z"/>
<path transform="translate(0,0)" fill="rgb(253,252,253)" d="M 1638.74 1658.23 L 1641.91 1659.36 C 1644.09 1663.64 1643.47 1696.53 1642.56 1702.52 C 1640.21 1703.38 1641.41 1703.21 1638.89 1702.59 L 1638.42 1699.61 C 1632.18 1699.52 1635.22 1705.28 1622.19 1702.62 C 1608.88 1689.95 1614.54 1661.79 1636.28 1672.94 L 1637.46 1673.55 C 1638.71 1671.68 1638.51 1661.78 1638.74 1658.23 z"/>
<path transform="translate(0,0)" fill="rgb(27,30,45)" d="M 1627.83 1673.91 C 1641.93 1676.65 1642.4 1693.94 1630.31 1700.06 C 1617.2 1696.87 1615.65 1679.75 1627.83 1673.91 z"/>
<path transform="translate(0,0)" fill="rgb(253,252,253)" d="M 1283.92 777.037 C 1306.06 775.987 1309.5 801.022 1292.19 810.562 C 1271.06 812.186 1266.16 787.684 1283.92 777.037 z"/>
<path transform="translate(0,0)" fill="rgb(27,30,45)" d="M 1286.19 780.782 C 1300.65 782.881 1302.19 799.477 1290.14 806.327 C 1275.2 804.93 1274.42 788.338 1286.19 780.782 z"/>
<path transform="translate(0,0)" fill="rgb(253,252,253)" d="M 1456.93 1670.15 C 1478.96 1669.42 1481.49 1695.01 1464.67 1703.21 C 1456.35 1703.49 1451.25 1702.95 1447.09 1694.67 C 1444.99 1690.41 1444.68 1685.49 1446.22 1681 C 1448.3 1674.81 1451.35 1672.71 1456.93 1670.15 z"/>
<path transform="translate(0,0)" fill="rgb(27,30,45)" d="M 1456.15 1674.92 C 1472.59 1672.76 1474.16 1688.99 1464.81 1698.94 C 1448.45 1700.5 1446.88 1684.79 1456.15 1674.92 z"/>
<path transform="translate(0,0)" fill="rgb(253,252,253)" d="M 520.92 1670.06 C 543.732 1668.96 546.661 1694.52 529.753 1703.41 C 508.453 1705.06 503.89 1680.63 520.92 1670.06 z"/>
<path transform="translate(0,0)" fill="rgb(27,30,45)" d="M 523.655 1673.86 C 538.656 1676.2 538.977 1691.61 527.816 1699.78 C 523.496 1699.22 520.675 1698.75 518.017 1694.91 C 515.785 1691.69 515.016 1687.68 515.9 1683.86 C 517.07 1678.6 519.283 1676.46 523.655 1673.86 z"/>
<path transform="translate(0,0)" fill="rgb(253,252,253)" d="M 419.017 1669.96 C 440.98 1669.04 444.089 1694.48 427.538 1703.25 C 404.583 1704.37 402.11 1679.15 419.017 1669.96 z"/>
<path transform="translate(0,0)" fill="rgb(27,30,45)" d="M 418.057 1675 C 434.691 1672.62 436.698 1688.16 427.525 1698.57 C 411.106 1701.01 410.074 1684.85 418.057 1675 z"/>
<path transform="translate(0,0)" fill="rgb(253,252,253)" d="M 1359.3 1658.8 C 1361.04 1658.94 1362.09 1659.19 1363.79 1659.53 C 1368.38 1664.88 1377.77 1694.12 1379.46 1701.9 L 1378.43 1703.25 L 1376.58 1703.33 C 1372.9 1699.4 1373.85 1694.95 1370.23 1690.73 L 1367.85 1690.64 L 1353.06 1690.71 C 1351.59 1694.85 1350.44 1699.95 1347.42 1702.9 L 1344.74 1702.85 L 1344.1 1701.56 C 1347.71 1688.52 1354.46 1671.78 1359.3 1658.8 z"/>
<path transform="translate(0,0)" fill="rgb(27,30,45)" d="M 1361.28 1666.62 C 1364.07 1669.23 1368.76 1681.7 1368.11 1685.62 L 1365.24 1686.46 C 1360.95 1686.5 1358.91 1687.44 1356.15 1684.15 C 1355.65 1680 1359.71 1671.16 1361.28 1666.62 z"/>
<path transform="translate(0,0)" fill="rgb(253,252,253)" d="M 504.874 777.033 C 519.836 776.578 521.148 782.266 523.269 795.26 C 516.081 794.997 503.798 793.106 498.807 798.861 L 499.563 801.002 C 504.393 805.01 508.511 807.817 514.414 804.159 C 517.951 801.342 516.122 801.802 519.788 801.507 L 520.963 803.041 C 519.589 809.643 511.439 812.292 505.941 810.498 C 489.522 805.143 491.103 784.961 504.874 777.033 z"/>
<path transform="translate(0,0)" fill="rgb(27,30,45)" d="M 505.901 780.851 C 511.488 781.276 516.383 783.254 517.3 789.438 C 515.161 791.687 516.451 790.756 512.25 791.068 C 507.912 791.063 501.297 792.54 499.893 787.961 C 501.337 784.494 503.111 783.355 505.901 780.851 z"/>
<path transform="translate(0,0)" fill="rgb(253,252,253)" d="M 1536.89 1670.18 C 1545.79 1669.53 1550.43 1671.3 1552.78 1680.61 C 1553.92 1685.16 1555.89 1702.65 1549.56 1703.28 L 1547.38 1700.58 C 1542.67 1700.59 1541.01 1703.74 1535.53 1703.71 C 1531.17 1702.1 1531.02 1701.71 1527.69 1698.27 C 1524.88 1682.64 1538.56 1687 1546.88 1681.55 C 1548.07 1678.36 1547.95 1680.03 1546.6 1676.36 C 1541.31 1673.2 1535.69 1676.83 1529.01 1677.62 L 1529.1 1676.22 C 1531.82 1672.19 1532.25 1672.21 1536.89 1670.18 z"/>
<path transform="translate(0,0)" fill="rgb(27,30,45)" d="M 1545.94 1687.37 C 1546.62 1687.41 1547.22 1687.84 1547.85 1688.11 C 1548.85 1690.72 1548.88 1689.41 1548.22 1692.05 L 1548.6 1689.27 C 1548.17 1697.46 1542.54 1699.16 1535.28 1699.41 C 1534.42 1698.47 1533.24 1696.83 1532.42 1695.77 C 1532 1692.05 1531.57 1693.68 1533.58 1690.68 C 1537.84 1688.19 1541.05 1688.11 1545.94 1687.37 z"/>
<path transform="translate(0,0)" fill="rgb(253,252,253)" d="M 1444.11 777.099 C 1454.65 776.741 1461.76 780.819 1461.4 792.561 C 1457.33 799.224 1448.49 792.077 1440.11 795.394 C 1437.67 798.088 1438.27 796.567 1438.05 800.036 C 1442.19 806.213 1449.27 807.104 1455.46 803.224 L 1456.2 802.114 L 1458.45 801.988 L 1459.4 803.272 C 1458.86 805.379 1458.53 807.633 1456.17 808.739 C 1433.98 819.166 1423.22 787.006 1444.11 777.099 z"/>
<path transform="translate(0,0)" fill="rgb(27,30,45)" d="M 1446.12 780.811 C 1450.85 781.611 1455.45 784.088 1456.76 789.024 L 1455.52 790.735 L 1451.25 791.009 C 1445.69 791.237 1443.15 792.095 1438.91 789.186 L 1438.9 787.029 C 1441.28 783.603 1442.5 783.158 1446.12 780.811 z"/>
<path transform="translate(0,0)" fill="rgb(253,252,253)" d="M 470.884 777.038 C 479.142 776.715 490.224 780.599 489.107 791.147 C 488.176 799.941 472.662 791.591 465.56 796.185 C 464.755 804.136 474.523 808.784 480.373 804.459 C 483.439 801.882 482.483 801.907 485.846 801.482 L 487.04 802.75 C 484.031 813.808 467.329 812.736 462.989 804.428 C 457.338 793.613 460.719 782.792 470.884 777.038 z"/>
<path transform="translate(0,0)" fill="rgb(27,30,45)" d="M 473.097 780.774 C 478.679 781.395 481.986 783.581 483.391 788.995 L 481.986 790.778 L 478.25 791.056 C 472.764 791.221 470.526 792.005 466.396 789.064 L 466.244 787.073 C 468.555 783.437 469.359 783.218 473.097 780.774 z"/>
<path transform="translate(0,0)" fill="rgb(253,252,253)" d="M 1621.95 777.055 C 1632.1 776.567 1636.71 779.435 1640.64 789.365 C 1639.35 799.283 1624.43 791.296 1616.66 797.316 L 1616.78 799.778 C 1621.44 807.794 1626.64 807.735 1633.82 803.075 L 1634.52 801.722 L 1636.56 801.339 L 1637.88 802.788 C 1637.7 804.665 1637.08 807.656 1635.17 808.563 C 1612.59 819.313 1601.46 789.144 1621.95 777.055 z"/>
<path transform="translate(0,0)" fill="rgb(27,30,45)" d="M 1624.16 780.859 C 1629.17 781.294 1633.58 783.909 1634.68 789.087 L 1633.44 790.736 L 1630.25 791.088 C 1625.15 791.27 1621.26 792.18 1617.42 789.111 L 1617.29 787.037 C 1619.57 783.485 1620.48 783.225 1624.16 780.859 z"/>
<path transform="translate(0,0)" fill="rgb(253,252,253)" d="M 1718.97 776.966 C 1728.88 776.846 1733.51 779.589 1736.97 789.466 C 1735.41 800.024 1717.81 791.582 1712.82 796.587 C 1713.12 806.165 1723.19 808.862 1731.32 802.116 C 1731.97 801.152 1731.44 801.724 1733.51 801.27 L 1734.83 802.704 C 1734.21 804.972 1733.34 807.553 1731.02 808.702 C 1708.84 819.702 1698.3 787.752 1718.97 776.966 z"/>
<path transform="translate(0,0)" fill="rgb(27,30,45)" d="M 1721.13 780.704 C 1726.4 781.377 1729.9 783.785 1731.04 789.032 L 1729.52 790.831 L 1725.25 791.083 C 1719.9 791.287 1717.47 792.097 1713.77 788.875 L 1713.95 786.666 C 1716.57 783.238 1717.33 783.026 1721.13 780.704 z"/>
<path transform="translate(0,0)" fill="rgb(253,252,253)" d="M 640.931 777.145 C 648.323 776.814 661.478 781.455 659.504 791.959 C 658.291 798.409 643.531 793.519 636.56 795.482 C 633.847 802.814 644.002 808.511 649.731 804.876 C 652.014 802.974 652.445 802.133 655.343 801.979 L 656.536 803.219 C 653.698 814.088 637.192 812.2 633.06 804.017 C 627.645 793.294 630.992 782.964 640.931 777.145 z"/>
<path transform="translate(0,0)" fill="rgb(27,30,45)" d="M 644.04 780.906 C 648.563 782.287 652.481 784.007 653.789 789.038 L 652.527 790.719 L 648.25 791.033 C 642.704 791.343 640.087 792.552 636.36 788.264 L 636.899 785.831 C 639.74 782.742 640.128 782.712 644.04 780.906 z"/>
<path transform="translate(0,0)" fill="rgb(253,252,253)" d="M 1591.92 1670.11 C 1601.68 1670.07 1607.58 1672.83 1610.36 1683.01 C 1608.39 1692.63 1591.31 1685.04 1586.12 1689.61 C 1586.89 1699.44 1596.09 1702.21 1603.96 1696.05 L 1604.48 1694.58 L 1606.51 1694.58 L 1607.36 1696.45 C 1605.96 1703.1 1597.75 1705.34 1592.67 1703.59 C 1576.64 1698.06 1577.62 1677.44 1591.92 1670.11 z"/>
<path transform="translate(0,0)" fill="rgb(27,30,45)" d="M 1593.63 1673.99 C 1598.96 1674.77 1603.33 1676.61 1604.02 1682.43 C 1601.8 1684.58 1602.22 1683.87 1598.25 1684.09 C 1592.85 1684.29 1590.65 1685.05 1586.78 1681.85 L 1586.82 1679.55 C 1589.45 1676.23 1589.86 1676.15 1593.63 1673.99 z"/>
<path transform="translate(0,0)" fill="rgb(253,252,253)" d="M 582.91 1669.71 C 586.438 1670.41 585.146 1669.51 587.471 1671.64 C 585.64 1678.33 580.928 1699.86 575.429 1702.62 L 573.493 1701.58 C 570.131 1695.34 567.388 1682.96 565.907 1675.8 C 564.28 1682.17 561.156 1699.73 555.516 1702.07 C 550.623 1699.44 548.685 1687.21 547.316 1681.67 C 546.116 1677.95 545.159 1675.3 544.494 1671.46 C 547.182 1670.41 545.813 1670.46 548.735 1671.67 C 551.055 1675.8 554.535 1690.63 556.038 1696.04 C 557.893 1690.02 560.123 1673.8 566.221 1672.01 C 571.005 1675.27 573.793 1689.83 575.378 1695.98 L 582.91 1669.71 z"/>
<path transform="translate(0,0)" fill="rgb(253,252,253)" d="M 651.485 1658.23 L 653.992 1658.99 C 657.511 1663.01 656.084 1679.3 656.017 1685.63 C 662.812 1678.25 664.538 1675.5 673.396 1670.77 L 674.352 1671.38 C 671.649 1676.62 667.146 1680.3 662.845 1684.46 C 666.093 1688.23 669.521 1692.6 672.702 1696.49 C 674.579 1698.83 675.468 1699.44 676.023 1702.36 L 674.659 1703.13 C 666.314 1700.15 663.173 1689.12 658.181 1688.53 C 655.183 1692.6 657.172 1697.74 654.391 1703.29 L 652.495 1703.22 C 649.489 1699.36 650.809 1665.14 651.485 1658.23 z"/>
<path transform="translate(0,0)" fill="rgb(253,252,253)" d="M 1675.57 776.388 C 1679.19 778.141 1677.77 776.87 1679.86 780.484 C 1683.93 778.578 1690.03 775.765 1694.41 777.689 C 1704.43 782.09 1701.91 802.858 1697.84 810.226 L 1696.37 810.059 C 1695.3 803.766 1695.56 797.595 1695.58 791.21 C 1695.26 787.536 1695.55 785.676 1693.06 783.033 C 1689.59 781.222 1689.57 780.929 1685.53 780.95 C 1675.27 787.455 1683.32 804.823 1678.45 809.955 L 1676.08 809.694 C 1674.15 806.379 1674.92 781.507 1675.57 776.388 z"/>
<path transform="translate(0,0)" fill="rgb(253,252,253)" d="M 438.777 777.107 C 444.872 777.043 451.033 776.658 453.451 783.654 C 448.071 784.955 442.079 779.609 436.032 783.832 C 436.14 790.181 448.22 790.996 454.824 799.212 C 456.382 806.185 450.738 808.585 445.06 810.808 C 438.068 811.082 434.435 809.036 429.744 803.951 L 430.018 802.273 L 432.975 801.501 C 439.677 805.275 438.576 807.661 446.795 805.252 C 449.451 802.643 448.824 804.138 449.237 800.861 C 445.76 795.476 437.289 794.97 431.317 789.102 C 429.061 782.632 433.585 780.169 438.777 777.107 z"/>
<path transform="translate(0,0)" fill="rgb(253,252,253)" d="M 1375.73 777.033 C 1381.29 776.8 1388.51 777.614 1391.1 783.504 C 1388.82 785.214 1390.09 784.537 1386.65 784.633 C 1383.87 782.544 1383.42 781.966 1379.95 781.201 C 1376.8 781.898 1376.16 781.749 1373.68 783.819 C 1373.38 790.707 1386.53 791.179 1392.12 800.161 C 1392.77 806.938 1387.7 808.924 1381.97 810.928 C 1376.01 810.663 1370.11 810.21 1369 803.102 L 1370.77 802.767 C 1377.38 806.817 1380.16 807.362 1387.07 803.334 L 1387.3 802.018 C 1381.07 794.147 1354.88 790.523 1375.73 777.033 z"/>
<path transform="translate(0,0)" fill="rgb(253,252,253)" d="M 572.759 777.069 C 578.672 776.709 581.872 776.905 586.85 780.126 C 588.422 783.309 588.273 781.705 587.366 785.096 C 584.229 785.577 580.802 782.403 575.446 780.836 C 572.07 781.606 573.503 780.779 571.18 783.69 C 571.121 790.955 582.617 790.906 589.382 798.972 C 591.006 805.903 585.884 808.256 580.16 810.869 C 574.111 810.774 566.992 810.209 565.174 803.064 C 569.884 802.439 573.984 805.48 580.922 805.652 C 584.355 803.339 583.7 804.773 584.322 801.785 C 579.608 794.312 552.25 789.882 572.759 777.069 z"/>
<path transform="translate(0,0)" fill="rgb(253,252,253)" d="M 733.129 1669.96 C 738.542 1670.17 745.336 1671.09 747.249 1677.19 L 746.351 1678.42 L 743.719 1678.45 C 738.815 1674.7 735.443 1672.22 729.77 1676.97 C 729.562 1683.23 742.436 1683.94 748.185 1692.36 C 749.228 1699.33 744.842 1701 739.218 1703.59 C 733.396 1703.68 723.66 1703.01 724.578 1695.17 C 729.785 1694.22 734.922 1703.71 742.518 1696.29 C 742.792 1689.09 731.166 1689.19 724.538 1681.39 C 722.856 1674.6 727.553 1672.51 733.129 1669.96 z"/>
<path transform="translate(0,0)" fill="rgb(253,252,253)" d="M 1425.07 1670.01 C 1430.49 1670.23 1438.62 1670.57 1438.58 1677.39 C 1434.3 1679.89 1429.69 1670.76 1421.66 1677.28 C 1421.49 1684.04 1433.71 1684.13 1440.04 1692.16 C 1441.46 1698.72 1436.9 1701.22 1431.31 1703.58 C 1425.78 1703.58 1415.3 1703.23 1416.18 1695.54 C 1418.98 1694.4 1434.78 1704.02 1435.11 1694.52 C 1431.46 1689.31 1422.81 1688.15 1416.68 1681.64 C 1414.64 1674.78 1419.42 1672.51 1425.07 1670.01 z"/>
<path transform="translate(0,0)" fill="rgb(253,252,253)" d="M 627.875 1670.05 C 634.582 1669.97 639.968 1669.85 642.76 1677.12 C 637.316 1679.27 631.106 1670.79 623.869 1677.82 C 625.988 1682.73 637.691 1684.32 643.659 1691.85 C 645 1698.63 640.826 1700.9 635.199 1703.55 C 628.057 1703.54 624.211 1702.67 618.716 1697.35 L 619.259 1695.66 L 622.391 1694.54 C 625.915 1696.93 628.172 1699.37 632.529 1699.69 C 636.13 1698.53 635.908 1698.69 638.45 1695.9 C 638.546 1688.52 626.5 1689.48 620.146 1681.66 C 618.614 1675.22 622.719 1672.93 627.875 1670.05 z"/>
<path transform="translate(0,0)" fill="rgb(253,252,253)" d="M 1395.06 1670.08 C 1399.3 1670.11 1409.8 1671.22 1408.17 1677.26 C 1402.5 1679.11 1398.26 1670.31 1391.38 1677.22 C 1392.08 1684.46 1404.3 1684.51 1410.4 1693.56 C 1411.16 1700.17 1404.35 1702.34 1398.74 1703.72 C 1393.29 1703.09 1388.69 1702.53 1385.08 1697.8 L 1385.41 1695.59 C 1390.55 1693.65 1396.87 1703.58 1404.8 1696.14 C 1404.1 1689.51 1391.87 1689 1385.91 1680.73 C 1384.97 1674.21 1389.6 1672.15 1395.06 1670.08 z"/>
<path transform="translate(0,0)" fill="rgb(253,252,253)" d="M 453.98 1669.99 C 459.726 1669.76 467.701 1671.54 470.719 1676.81 C 469.56 1678.9 470.245 1677.94 467.581 1679.26 C 461.062 1676.87 457.094 1673.1 450.838 1676.64 C 447.57 1681.57 447.224 1691.22 451.122 1696.07 C 453.736 1699.32 457.939 1699.01 461.728 1698.92 C 463.712 1696.68 464.832 1694.87 467.637 1693.99 L 468.877 1695.11 C 468.438 1697.45 466.544 1700.13 464.623 1701.32 C 446.063 1712.79 432.687 1681.88 453.98 1669.99 z"/>
<path transform="translate(0,0)" fill="rgb(253,252,253)" d="M 674.999 777.109 C 682.075 776.76 689.389 777.828 691.369 785.932 L 690.117 786.985 L 687.453 786.62 C 685.641 784.928 681.722 780.885 679.521 781.188 C 666.306 783.006 663.903 806.689 682.791 805.961 C 685.206 802.721 685.619 801.121 689.503 800.643 C 691.458 804.08 687.812 808.081 685.037 809.151 C 663.876 817.31 656.404 787.72 674.999 777.109 z"/>
<path transform="translate(0,0)" fill="rgb(253,252,253)" d="M 1477.91 777.041 C 1483.41 776.855 1494.02 778.269 1493.52 785.494 L 1491.93 786.524 C 1485.61 783.476 1480.19 779.665 1473.91 783.945 C 1469.41 791.879 1471.27 808.115 1486.05 805.264 C 1488.98 802.108 1489.05 801.178 1492.56 800.572 L 1493.39 802.188 C 1491.37 808.747 1482.83 812.622 1477.29 810.241 C 1461.84 803.612 1465.17 784.531 1477.91 777.041 z"/>
<path transform="translate(0,0)" fill="rgb(253,252,253)" d="M 1318.92 777.062 C 1325.23 776.816 1334.37 777.671 1334.72 785.643 L 1333.1 786.426 C 1327.24 784.044 1322 780.056 1316.04 783.088 C 1310.32 790.037 1311.47 806.761 1326.49 805.832 C 1328.85 803.248 1329.68 801.883 1332.98 800.694 L 1334.53 801.583 C 1334.18 803.788 1333.62 805.802 1331.59 807.179 C 1310.55 821.417 1298.8 789.12 1318.92 777.062 z"/>
<path transform="translate(0,0)" fill="rgb(253,252,253)" d="M 1491.95 1670.12 C 1498.31 1670.01 1506.87 1670.94 1506.96 1679.07 C 1501.58 1680.62 1496.13 1670.9 1487.6 1676.72 C 1484.55 1681.91 1484.74 1691.94 1488.76 1696.79 C 1491.15 1699.69 1496.31 1699.17 1499.71 1698.92 C 1501.74 1695.88 1502.38 1693.8 1506.02 1693.88 L 1506.46 1696 C 1503.75 1702.85 1497.88 1704.76 1491.14 1702.96 C 1487.45 1702.01 1484.36 1699.51 1482.64 1696.12 C 1477.42 1686.01 1481.62 1674.86 1491.95 1670.12 z"/>
<path transform="translate(0,0)" fill="rgb(253,252,253)" d="M 486.713 1657.22 C 489.406 1657.57 491.427 1657.32 492.906 1659.5 C 490.997 1663.92 489.268 1659.85 485.087 1664.5 C 483.734 1674.59 488.204 1667.87 491.398 1672.59 C 488.188 1678.19 490.203 1671.51 485.273 1675.48 C 483.994 1682.22 484.489 1695.57 484.525 1702.92 C 482.743 1703 482.474 1702.84 480.693 1702.56 C 476.065 1695.98 482.844 1681.72 478.501 1675.48 C 475.989 1674.81 476.045 1674.96 474.048 1673.36 L 474.622 1671.3 L 478.202 1670.43 C 482.728 1665.42 476.22 1662 486.713 1657.22 z"/>
<path transform="translate(0,0)" fill="rgb(253,252,253)" d="M 1563.87 1661.11 C 1572.1 1663.02 1565.59 1664.66 1569.61 1670.14 L 1574.88 1670.46 L 1575.91 1671.96 L 1575.42 1674.27 C 1573.46 1674.85 1571.85 1674.96 1569.82 1675.04 C 1566.93 1680.76 1567.92 1690.52 1569.75 1696.64 C 1572.33 1699.26 1571.66 1698.41 1576.41 1698.85 C 1575.82 1702.18 1576.54 1700.86 1574.6 1703.17 C 1557.33 1705.21 1565.74 1684.04 1563.54 1675.49 L 1560.04 1673.98 C 1559.22 1670.9 1562.18 1669.9 1563.65 1667.22 C 1563.74 1664.73 1563.81 1662.7 1563.87 1661.11 z"/>
<path transform="translate(0,0)" fill="rgb(253,252,253)" d="M 711.355 1658.24 L 714.907 1659.42 C 717.436 1664.63 715.913 1696.23 715.694 1703.93 L 712.124 1702.62 C 709.73 1697.16 710.929 1665.77 711.355 1658.24 z"/>
<path transform="translate(0,0)" fill="rgb(253,252,253)" d="M 697.353 1658.24 L 700.855 1659.44 C 703.357 1664.62 702.013 1696.31 701.614 1703.77 L 698.212 1702.57 C 695.731 1697.35 697.01 1665.78 697.353 1658.24 z"/>
<path transform="translate(0,0)" fill="rgb(253,252,253)" d="M 1647.5 765.22 L 1650.68 766.439 C 1653.13 771.426 1651.96 803.662 1651.48 810.768 L 1648.18 809.592 C 1645.7 804.486 1646.82 772.041 1647.5 765.22 z"/>
<path transform="translate(0,0)" fill="rgb(253,252,253)" d="M 498.617 1658.17 L 502.403 1659.32 C 504.928 1663.68 503.613 1695.19 503.68 1703.31 L 500.18 1702.65 C 497.813 1698.7 498.661 1665.77 498.617 1658.17 z"/>
<path transform="translate(0,0)" fill="rgb(253,252,253)" d="M 683.423 1669.31 L 686.543 1670.7 C 689.393 1675.22 687.817 1697.83 687.65 1703.76 L 684.088 1702.71 C 681.371 1697.32 682.6 1675.71 683.423 1669.31 z"/>
<path transform="translate(0,0)" fill="rgb(253,252,253)" d="M 1514.99 1669.22 L 1518.4 1670.26 C 1521.18 1674.39 1519.92 1696.6 1519.82 1703.58 L 1516.51 1702.96 C 1513.31 1698.57 1514.82 1676.15 1514.99 1669.22 z"/>
<path transform="translate(0,0)" fill="rgb(253,252,253)" d="M 1661.55 776.22 L 1664.86 777.431 C 1667.46 782.569 1666.03 804.183 1665.71 810.943 L 1662.17 809.588 C 1659.63 804.121 1660.88 782.718 1661.55 776.22 z"/>
<path transform="translate(0,0)" fill="rgb(253,252,253)" d="M 1563.62 776.228 L 1566.93 777.382 C 1569.56 782.653 1568.11 804.307 1567.71 811.045 L 1564.21 809.591 C 1561.64 804.049 1563.07 783.038 1563.62 776.228 z"/>
<path transform="translate(0,0)" fill="rgb(253,252,253)" d="M 593.384 1682.37 C 598.108 1682.16 607.25 1680.68 611.255 1682.93 C 612.371 1683.56 612.315 1685.14 612.717 1686.87 C 607.869 1686.92 598.804 1688.19 594.689 1686.04 C 593.56 1685.45 593.73 1684.12 593.384 1682.37 z"/>
<path transform="translate(0,0)" fill="rgb(253,252,253)" d="M 1341.23 789.34 C 1346 789.109 1354.69 788.211 1358.87 790.005 C 1360.53 790.717 1360.17 791.515 1360.92 793.918 C 1353.6 794.078 1343.27 797.312 1341.23 789.34 z"/>
<path transform="translate(0,0)" fill="rgb(253,252,253)" d="M 1500.55 789.406 C 1506.17 789.108 1514.79 787.748 1518.85 790.981 L 1518.77 794.011 C 1512.94 794.268 1504.73 795.573 1500.55 792.22 L 1500.55 789.406 z"/>
</svg>