<svg version="1.1" xmlns="http://www.w3.org/2000/svg" style="display: block;" viewBox="0 0 2048 2048" width="1024" height="1024" preserveAspectRatio="none">
<path transform="translate(0,0)" fill="rgb(25,27,44)" d="M 0 0 L 2048 0 L 2048 2048 L 0 2048 L 0 0 z"/>
<path transform="translate(0,0)" fill="rgb(97,121,133)" d="M 1180.07 887.235 C 1212.52 887.006 1215.54 930.313 1215.27 954.096 C 1214.97 980.2 1217.95 1026.37 1183.58 1031.69 C 1163.08 1030.97 1152.08 1016.15 1150.18 996.677 C 1147.2 966.192 1137.81 893.812 1180.07 887.235 z"/>
<path transform="translate(0,0)" fill="rgb(25,27,44)" d="M 1178.36 909.907 C 1197.21 910.302 1193.37 944.03 1193.7 957.883 C 1194.05 972.464 1195.31 998.621 1184.6 1008.88 C 1168.05 1010.05 1168.71 980.547 1169.03 969.233 C 1169.5 952.615 1165.67 921.879 1178.36 909.907 z"/>
<path transform="translate(0,0)" fill="rgb(97,121,133)" d="M 1547.24 888.18 C 1554.62 887.467 1557.82 887.552 1557.38 896.628 C 1557.17 901.17 1557.05 905.821 1556.99 910.379 C 1533.27 914.057 1529.97 922.274 1524.75 944.446 C 1565.35 909.663 1585.42 985.087 1559.31 1022.34 C 1555.4 1026.37 1550.53 1029.33 1545.16 1030.94 C 1524.1 1037.35 1509.42 1016.62 1505.83 998.264 C 1500.4 970.512 1501.84 934.276 1516.42 909.275 C 1523.55 897.043 1533.99 891.143 1547.24 888.18 z"/>
<path transform="translate(0,0)" fill="rgb(25,27,44)" d="M 1535.02 957.966 C 1554.14 959.88 1554.7 1000.39 1538.83 1009.53 C 1522.78 1006.72 1523.35 982.631 1525.65 970.044 C 1526.78 963.848 1529.81 961.074 1535.02 957.966 z"/>
<path transform="translate(0,0)" fill="rgb(97,121,133)" d="M 235.1 889.106 L 257.062 889.102 L 257.08 976.126 L 268.044 976.452 L 268.178 998.982 L 257.231 999.085 L 257.177 1029.66 C 251.869 1029.69 240.008 1031.32 236.267 1028.4 L 235.911 1025.25 L 235.827 999.055 L 197.025 999.185 C 195.638 974.517 202.254 965.522 211.67 943.499 L 235.1 889.106 z"/>
<path transform="translate(0,0)" fill="rgb(25,27,44)" d="M 235.53 929.74 C 236.589 942.5 235.948 962.718 235.898 976.044 L 217.79 976.142 C 217.45 973.526 233.435 935.004 235.53 929.74 z"/>
<path transform="translate(0,0)" fill="rgb(97,121,133)" d="M 523.463 889.158 L 579.855 889.159 L 579.842 912.49 C 567.043 912.681 553.958 912.574 541.133 912.606 L 539.768 942.227 C 549.041 936.372 558.827 934.292 568.056 941.467 C 587.883 956.88 588.006 1000.63 573.805 1019.68 C 567.451 1028.2 559.73 1030.69 549.964 1031.72 C 524.052 1029.35 518.833 1012.58 515.483 990.019 L 537.096 989.897 C 538.795 1000.07 544.575 1016.44 556.627 1005.32 C 568.829 994.057 560.6 937.052 535.586 966.954 C 530.219 965.097 524.242 963.548 518.743 961.991 C 519.047 940.567 522.018 911.174 523.463 889.158 z"/>
<path transform="translate(0,0)" fill="rgb(97,121,133)" d="M 1100 887.31 C 1117.08 887.408 1126.77 894.044 1131.67 910.429 C 1142.73 947.473 1113.38 975.95 1097.24 1006.39 L 1136.72 1006.7 L 1136.76 1029.58 L 1071.23 1029.54 L 1069.76 1028.59 C 1068.89 1023.56 1069.48 1014.66 1069.66 1009.26 C 1083.09 987.148 1104.85 959.713 1112.04 935.815 C 1118.72 913.66 1091.2 892.37 1088.75 934.892 C 1081.5 934.862 1074.24 934.682 1067 934.352 C 1069.4 911.358 1073.69 891.853 1100 887.31 z"/>
<path transform="translate(0,0)" fill="rgb(97,121,133)" d="M 863.017 887.238 C 879.876 886.322 891.583 896.726 895.592 912.626 C 904.492 947.925 875.978 977.739 859.834 1006.37 L 899.8 1006.67 L 899.75 1029.48 L 836.75 1029.63 L 834.005 1029.51 C 830.838 1025.72 832.5 1014.27 832.814 1008.79 C 846.313 987.761 867.991 959.638 874.881 936.605 C 881.887 913.181 854.256 892.142 851.712 934.824 C 844.703 934.817 837.584 934.649 830.566 934.546 C 831.07 911.362 837.407 891.75 863.017 887.238 z"/>
<path transform="translate(0,0)" fill="rgb(97,121,133)" d="M 784.097 887.231 C 801.435 887.002 811.446 894.618 816.192 911.201 C 826.358 946.73 797.931 977.244 781.45 1006.25 L 820.94 1006.79 L 820.924 1029.39 L 757.865 1029.55 C 755.058 1029.36 756.246 1029.88 754.198 1027.91 C 753.013 1022.03 753.685 1015.43 753.941 1009.34 C 765.772 990.278 778.136 972.783 789.957 952.686 C 795.154 943.85 804.788 914.63 785.866 910.839 C 775.386 908.739 773.735 926.721 773.104 934.934 C 765.911 934.915 758.72 934.73 751.536 934.381 C 752.509 911.28 758.8 891.992 784.097 887.231 z"/>
<path transform="translate(0,0)" fill="rgb(97,121,133)" d="M 1258.83 887.307 C 1275.37 887.752 1284.55 894.118 1289.52 909.974 C 1301.07 946.851 1271.38 975.944 1255.21 1006.36 C 1268.1 1006.79 1281.85 1006.71 1294.81 1006.84 L 1294.89 1029.59 L 1230.75 1029.48 C 1229.11 1029.37 1230.01 1029.61 1228.19 1028.36 C 1227.02 1022.43 1227.65 1015.35 1227.87 1009.19 C 1238.94 991.044 1251.14 973.558 1262.01 955.331 C 1268.35 944.685 1274.2 930.031 1268.72 918.034 C 1266.03 912.144 1259.37 908.116 1253.56 912.908 C 1247.23 918.121 1247.44 927.39 1246.83 934.888 C 1239.79 934.888 1232.75 934.711 1225.71 934.358 C 1226.34 911.365 1233.38 891.093 1258.83 887.307 z"/>
<path transform="translate(0,0)" fill="rgb(50,73,87)" d="M 75.6879 1343.02 C 91.7808 1342.29 110.962 1342.81 127.391 1342.81 L 222.211 1342.77 L 516.385 1342.82 L 656.787 1342.86 C 667.826 1342.82 716.103 1341.85 724.643 1343.4 C 726.205 1345.89 725.587 1346.58 725.565 1350.09 C 673.621 1350.8 620.487 1350.25 568.468 1350.27 L 271.356 1350.29 L 140.577 1350.21 C 128.667 1350.25 87.2426 1351.22 77.4053 1349.64 C 75.2669 1347.06 75.9768 1347.19 75.6879 1343.02 z"/>
<path transform="translate(0,0)" fill="rgb(50,73,87)" d="M 1321.2 1342.89 C 1365.96 1341.63 1417.47 1342.8 1462.68 1342.81 L 1735.36 1342.8 L 1894.05 1342.85 C 1913.1 1342.85 1953.5 1341.51 1969.97 1343.17 C 1972.38 1345.35 1971.6 1345.24 1972.1 1349.56 C 1966.66 1350.56 1947.73 1350.31 1941.41 1350.32 L 1883.44 1350.31 L 1667.36 1350.25 L 1426.28 1350.25 L 1360.66 1350.33 C 1351.1 1350.37 1331.95 1351 1323.17 1349.75 C 1321.4 1347.7 1321.72 1346.08 1321.2 1342.89 z"/>
<path transform="translate(0,0)" fill="rgb(97,121,133)" d="M 1422.19 889.199 L 1491.72 889.143 C 1491.65 913.551 1481.49 939.893 1474.39 963.771 C 1467.85 985.637 1461.58 1007.58 1455.58 1029.6 L 1432.75 1029.6 C 1444.07 990.572 1457.08 950.886 1469.41 912.097 L 1422.27 912.172 L 1422.19 889.199 z"/>
<path transform="translate(0,0)" fill="rgb(97,121,133)" d="M 955.987 888.843 L 958.044 889.279 C 959.852 893.977 958.787 1015.04 958.781 1029.48 L 937.079 1029.63 L 937.04 1004.32 L 937.098 922.819 C 929.348 925.965 922.469 929.45 915.004 933.159 L 915.077 909.608 C 928.66 902.581 942.297 895.659 955.987 888.843 z"/>
<path transform="translate(0,0)" fill="rgb(50,73,87)" d="M 390.638 768.456 C 393.335 769.498 393.222 769.327 395.038 771.544 C 396.284 776.111 395.821 817.807 395.818 826.683 L 395.743 971.608 L 395.804 1136.33 C 395.81 1157.75 397.02 1201.49 394.987 1221.59 C 392.261 1220.82 391.139 1220.81 389.08 1218.92 C 387.899 1204.57 388.736 1176.39 388.742 1161.21 L 388.719 1049.39 L 388.731 869.991 C 388.723 838.916 388.639 807.716 388.802 776.638 C 388.821 772.9 388.869 771.559 390.638 768.456 z"/>
<path transform="translate(0,0)" fill="rgb(50,73,87)" d="M 706.849 768.522 C 708.69 769.187 709.205 769.592 710.918 770.563 C 712.699 774.115 711.928 867.423 711.926 877.508 L 711.896 1082.03 L 711.965 1173.4 C 711.971 1183.75 712.554 1212.12 710.906 1220.97 L 706.287 1220.18 C 704.149 1215.94 704.984 1186.97 705.003 1180.2 L 705.019 1095.48 L 704.95 887.966 C 704.933 851.375 704.889 814.714 704.985 778.126 C 704.995 774.143 704.866 771.949 706.849 768.522 z"/>
<path transform="translate(0,0)" fill="rgb(50,73,87)" d="M 1337.69 768.501 C 1340.69 769.418 1340.96 769.133 1342.75 771.562 C 1344.22 797.286 1342.99 835.624 1342.99 862.107 L 1342.97 1039.82 L 1343 1163.77 C 1343 1173.68 1343.71 1214.13 1341.83 1221.05 C 1341.17 1220.93 1340.2 1220.78 1339.58 1220.56 C 1338.01 1220 1337.5 1219.8 1336.9 1218.24 C 1334.51 1211.92 1336.16 1054.96 1336.15 1033.42 L 1336.05 865.386 C 1336.04 852.143 1334.69 775.047 1337.69 768.501 z"/>
<path transform="translate(0,0)" fill="rgb(50,73,87)" d="M 1652.8 769.251 C 1655.45 769.436 1655.85 769.118 1657.81 770.743 C 1660.57 777.171 1659.18 836.304 1659.19 848.549 L 1659.22 1011.41 L 1659.24 1144.42 C 1659.25 1168.51 1659.91 1197.41 1658.78 1221.1 L 1654 1219.93 C 1651.9 1216.5 1652.54 1189.89 1652.52 1184 L 1652.39 1087.41 L 1652.28 877.728 C 1652.27 847.661 1650.73 798.087 1652.8 769.251 z"/>
<path transform="translate(0,0)" fill="rgb(50,73,87)" d="M 1022.38 768.612 L 1026.39 770.504 C 1027.74 773.845 1027.18 798.798 1027.18 803.837 L 1027.17 884.026 L 1027.2 1151.2 C 1027.21 1162.29 1029.01 1216.44 1025.12 1221.25 L 1021.96 1220.04 C 1020.21 1217.57 1020.91 1199.49 1020.91 1195.04 L 1020.91 1127.19 L 1020.86 843.606 C 1020.84 833.642 1019.75 773.763 1022.38 768.612 z"/>
<path transform="translate(0,0)" fill="rgb(97,121,133)" d="M 1930.93 933.993 C 1953.35 933.904 1953.45 954.292 1953.55 971.921 C 1953.62 985.549 1952.92 1000.98 1939.42 1008.06 C 1937.93 1008.11 1932.36 1008.31 1931.19 1007.86 C 1915.21 1001.73 1916.69 976.591 1917.22 962.452 C 1917.67 950.696 1919.82 939.735 1930.93 933.993 z"/>
<path transform="translate(0,0)" fill="rgb(25,27,44)" d="M 1934.12 944.816 C 1946.03 949.129 1943.52 988.793 1936.74 997.774 C 1936.42 997.623 1933.3 996.187 1933.03 995.811 C 1925.99 986.155 1926.31 953.435 1934.12 944.816 z"/>
<path transform="translate(0,0)" fill="rgb(97,121,133)" d="M 1888.78 934.077 C 1911.43 933.555 1911.41 954.452 1911.49 972.097 C 1911.56 985.594 1911.12 1001.34 1897.48 1008.11 C 1895.97 1008.15 1890.39 1008.33 1889.21 1007.86 C 1873.86 1001.82 1874.76 978.116 1875.11 964.304 C 1875.41 952.052 1877.46 940.539 1888.78 934.077 z"/>
<path transform="translate(0,0)" fill="rgb(25,27,44)" d="M 1891.23 945.305 L 1894.91 946.352 C 1902.81 953.284 1901.4 988.883 1895.38 997.071 C 1894.56 996.968 1892.72 996.452 1891.85 996.233 C 1883.2 988.717 1885.99 954.91 1891.23 945.305 z"/>
<path transform="translate(0,0)" fill="rgb(97,121,133)" d="M 1855.37 934.055 C 1858.07 933.807 1858.13 933.817 1860.82 934.225 C 1864.16 937.908 1863.91 938.912 1862.44 943.235 C 1858.88 946.966 1843.65 951.516 1846.36 961.55 L 1847.58 961.1 L 1849.43 960.449 C 1872.9 951.959 1873.1 989.042 1864.31 1003.31 C 1835.5 1027.88 1827.61 969.316 1837.45 952.195 C 1843.85 941.067 1842.95 939.299 1855.37 934.055 z"/>
<path transform="translate(0,0)" fill="rgb(25,27,44)" d="M 1848.2 970.724 C 1862.87 970.816 1860.23 987.85 1854.86 996.652 C 1849.61 997.096 1847.5 996.042 1845.83 990.492 C 1843.87 983.857 1844.73 976.709 1848.2 970.724 z"/>
<path transform="translate(0,0)" fill="rgb(97,121,133)" d="M 1739.86 934.175 C 1751.59 933.384 1760.31 936.772 1763.24 949.28 C 1765.36 958.323 1761.66 962.542 1757.64 969.568 C 1762.55 978.457 1767.69 994.079 1759.41 1003.01 C 1753.1 1009.21 1737.87 1010.48 1732.26 1002.62 C 1728.8 997.772 1724.14 991.013 1730.18 986.767 C 1733 986.933 1733.69 986.942 1736.4 987.596 C 1739.84 991.737 1742.55 997.001 1748.2 995.803 C 1758.48 987.843 1752.62 976.578 1740.14 975.529 C 1738.65 972.503 1739.34 970.296 1739.53 966.531 C 1741.69 963.532 1746.92 963.972 1751.02 960.53 C 1756.27 956.122 1748.94 942.217 1744.19 945.496 C 1740.94 947.745 1739.17 953.087 1733.94 955.006 C 1730.17 954.545 1731.98 955.122 1728.55 952.59 C 1725.93 945.198 1733.98 937.595 1739.86 934.175 z"/>
<path transform="translate(0,0)" fill="rgb(97,121,133)" d="M 1782.91 934.085 C 1792.25 933.55 1801.58 935.879 1803.79 946.28 C 1807.62 964.344 1794.05 981.434 1784.77 995.738 C 1791.19 995.46 1802.82 993.207 1806.33 999.209 C 1806.17 1002.82 1806.41 1002.85 1804.08 1005.78 C 1797.66 1009.62 1782.51 1007.69 1773.75 1007.63 L 1771.66 1007.41 C 1761.6 993.508 1807.79 961.19 1788.68 945.495 C 1787.16 944.25 1786.96 944.777 1785.12 945.117 C 1782.35 948.153 1781.41 952.957 1780.18 957.026 C 1777.62 958.658 1774.65 957.902 1771.09 957.777 L 1770.09 956.469 C 1768.99 945.799 1773.79 939.024 1782.91 934.085 z"/>
<path transform="translate(0,0)" fill="rgb(170,180,192)" d="M 845.859 1321.72 C 857.941 1322.75 858.915 1333.18 858.946 1343.71 C 858.973 1352.92 858.822 1362.18 852.011 1369.07 C 838.161 1369.3 838.091 1354.91 838.394 1344.17 C 838.651 1335.03 838.798 1328.25 845.859 1321.72 z"/>
<path transform="translate(0,0)" fill="rgb(25,27,44)" d="M 846 1326.32 C 848.361 1326.66 848.431 1326.75 850.723 1327.47 C 857.671 1334.46 855.558 1355.96 851.614 1364.36 C 849.378 1364.24 849.291 1364.12 847.084 1363.59 C 839.671 1356.62 841.896 1334.6 846 1326.32 z"/>
<path transform="translate(0,0)" fill="rgb(170,180,192)" d="M 869.787 1321.83 C 886.653 1322.3 883.5 1345.11 882.171 1356.89 C 881.546 1362.42 879.895 1365.28 876.126 1369.2 C 864.406 1368.8 862.645 1357.83 862.807 1347.96 C 862.964 1338.33 862.625 1329.02 869.787 1321.83 z"/>
<path transform="translate(0,0)" fill="rgb(25,27,44)" d="M 870.752 1326.5 C 872.951 1326.77 872.842 1326.87 874.975 1327.63 C 882.023 1335.24 879.77 1356.37 874.931 1364.74 C 873.877 1364.46 872.197 1363.77 871.123 1363.37 C 864.356 1355.65 865.823 1334.97 870.752 1326.5 z"/>
<path transform="translate(0,0)" fill="rgb(170,180,192)" d="M 821.332 1321.94 C 826.397 1321.86 827.909 1322.25 831.805 1325.41 C 836.22 1334 829.15 1339.91 830.311 1345.15 C 832.599 1355.47 840.005 1357.61 827.757 1368.73 C 824.194 1368.89 819.774 1368.67 817.068 1366.02 C 811.453 1360.53 817.896 1350.05 817.838 1343.43 C 817.809 1340.16 815 1334.68 815.185 1331.72 C 815.44 1327.62 818.67 1324.58 821.332 1321.94 z"/>
<path transform="translate(0,0)" fill="rgb(25,27,44)" d="M 822.068 1346.44 C 833.319 1348.35 832.09 1357.94 826.114 1364.82 C 815.368 1362.63 817.434 1353.34 822.068 1346.44 z"/>
<path transform="translate(0,0)" fill="rgb(25,27,44)" d="M 821.755 1326.39 C 824.401 1326.69 824.098 1326.7 826.674 1327.51 C 831.6 1332.46 829.47 1337.6 826.318 1342.84 L 822.355 1341.54 C 817.004 1336.49 818.847 1332.14 821.755 1326.39 z"/>
<path transform="translate(0,0)" fill="rgb(170,180,192)" d="M 767.771 1094.11 C 798.177 1093.4 788.538 1105.14 783.802 1121.75 C 783.428 1123.07 789.554 1134.61 788.817 1139 L 786.998 1139.82 C 783.908 1137.71 784.682 1137.77 782.855 1133.75 C 781.288 1127.79 781.004 1123.29 775.821 1119.95 L 774.523 1120.27 C 770.658 1125.1 772.78 1135.15 770.581 1139.83 L 768.671 1139.17 C 767.448 1135.62 767.788 1100.43 767.771 1094.11 z"/>
<path transform="translate(0,0)" fill="rgb(25,27,44)" d="M 772.01 1098.77 C 777.698 1098.71 778.672 1098.37 782.698 1101.99 C 785.138 1107.01 784.114 1109.93 782.447 1115.15 C 778.373 1116.15 776.284 1117.13 772.754 1114.62 C 770.887 1110.47 771.802 1103.66 772.01 1098.77 z"/>
<path transform="translate(0,0)" fill="rgb(170,180,192)" d="M 113.722 1094.12 C 140.995 1093.62 136.91 1102.3 129.989 1120.79 C 129.106 1123.14 136.865 1134.86 134.453 1139.13 L 132.39 1139.29 C 130.128 1137.3 129.549 1134.25 128.54 1131.26 C 127.161 1126.25 126.612 1121.88 121.797 1119.33 C 116.8 1123.6 119.783 1135.1 116.451 1139.37 L 114.719 1139.26 C 113.378 1136.65 113.782 1099.75 113.722 1094.12 z"/>
<path transform="translate(0,0)" fill="rgb(25,27,44)" d="M 118.051 1098.84 C 130.955 1098.54 132.864 1103.66 129.029 1114.88 C 124.549 1116.14 122.413 1117.24 118.661 1114.21 C 117.042 1109.93 117.845 1103.67 118.051 1098.84 z"/>
<path transform="translate(0,0)" fill="rgb(170,180,192)" d="M 1829.92 1090.53 C 1831.89 1091.65 1831.18 1091.13 1832.58 1093.07 C 1833.42 1100.37 1833.78 1132.9 1831.56 1139.07 C 1826.26 1139.23 1823.19 1140.59 1818.09 1139.06 C 1812.42 1130.2 1809.84 1111.74 1820.49 1105.68 C 1824.1 1105.56 1824.87 1105.87 1828.18 1106.95 C 1829.93 1103.32 1828.11 1097.2 1829.92 1090.53 z"/>
<path transform="translate(0,0)" fill="rgb(25,27,44)" d="M 1821.74 1109.38 C 1824.51 1110.15 1823.95 1110.04 1826.54 1111.5 C 1831.11 1118.38 1830.54 1129.74 1824.99 1135.97 C 1820.37 1135.03 1818.55 1132.1 1817.7 1127.7 C 1816.52 1121.3 1817.98 1114.69 1821.74 1109.38 z"/>
<path transform="translate(0,0)" fill="rgb(170,180,192)" d="M 1895.25 1104.36 L 1898.38 1106.91 C 1901.16 1106.74 1903.17 1106.26 1905.87 1105.71 C 1907.99 1106.23 1909.58 1106.86 1910.82 1108.79 C 1916.88 1118.29 1917.17 1144.14 1899.72 1138.93 L 1899.31 1138.95 C 1897.3 1142.99 1900.01 1146.3 1897.91 1152.02 L 1895.99 1152.73 L 1894.62 1151.77 C 1895.06 1136.34 1893.91 1119.51 1895.25 1104.36 z"/>
<path transform="translate(0,0)" fill="rgb(25,27,44)" d="M 1901.89 1109.3 C 1914.05 1111.87 1910.77 1128.08 1906.49 1136.02 C 1903.58 1136.13 1903.75 1135.98 1901.21 1134.44 C 1896.39 1128.22 1897.48 1115.43 1901.89 1109.3 z"/>
<path transform="translate(0,0)" fill="rgb(170,180,192)" d="M 163.688 1104.59 L 166.809 1107.07 C 169.749 1106.44 171.081 1106.02 173.869 1105.09 C 185.606 1107.92 187.881 1143.45 169.241 1139.22 L 168.404 1137.46 C 165.674 1139.97 169.026 1149.6 164.617 1152.88 L 163.285 1151.5 C 163.083 1141.58 162.088 1113.42 163.688 1104.59 z"/>
<path transform="translate(0,0)" fill="rgb(25,27,44)" d="M 169.982 1109.45 C 181.981 1111.22 179.706 1128.89 174.476 1136.29 C 163.46 1133.21 164.985 1116.26 169.982 1109.45 z"/>
<path transform="translate(0,0)" fill="rgb(170,180,192)" d="M 1245.99 1319.36 L 1247.73 1320.25 C 1249.97 1323.24 1250.09 1364.85 1247.89 1367.61 C 1242.53 1368.3 1238.63 1369.51 1234 1367.17 C 1228.69 1358.21 1226.83 1340.92 1236.58 1334.04 C 1239.53 1333.28 1241.1 1334.32 1244.05 1335.43 L 1245.31 1335.91 C 1245.4 1330.39 1245.63 1324.87 1245.99 1319.36 z"/>
<path transform="translate(0,0)" fill="rgb(25,27,44)" d="M 1236.92 1338.5 C 1240.22 1338.55 1239.99 1338.5 1242.96 1339.97 C 1247.77 1346.29 1246.62 1358.6 1242.08 1364.69 C 1240.91 1364.41 1239.19 1363.79 1238 1363.4 C 1231.25 1357.06 1233.3 1345.97 1236.92 1338.5 z"/>
<path transform="translate(0,0)" fill="rgb(25,27,44)" d="M 831.25 1137.2 C 828.154 1138.96 827.552 1139.57 823.934 1139.69 C 810.13 1134.99 812.091 1099.14 830.463 1107.14 L 833.033 1106.04 C 836.887 1109.25 835.538 1146.58 832.611 1152.43 C 830.493 1150.06 830.858 1143.49 831.048 1140.15 C 831.104 1139.17 831.171 1138.18 831.25 1137.2 z"/>
<path transform="translate(0,0)" fill="rgb(170,180,192)" d="M 831.25 1137.2 C 828.154 1138.96 827.552 1139.57 823.934 1139.69 C 810.13 1134.99 812.091 1099.14 830.463 1107.14 L 828.544 1109.8 C 826.005 1110.23 823.237 1110.19 821.875 1112.77 C 818.4 1119.34 817.684 1129.34 823.784 1134.4 C 827.629 1135.3 827.948 1134.87 831.303 1132.36 L 831.25 1137.2 z"/>
<path transform="translate(0,0)" fill="rgb(170,180,192)" d="M 830.463 1107.14 L 833.033 1106.04 C 836.887 1109.25 835.538 1146.58 832.611 1152.43 C 830.493 1150.06 830.858 1143.49 831.048 1140.15 C 831.104 1139.17 831.171 1138.18 831.25 1137.2 L 831.303 1132.36 C 830.635 1123.95 832.701 1117 828.544 1109.8 L 830.463 1107.14 z"/>
<path transform="translate(0,0)" fill="rgb(170,180,192)" d="M 1515.18 1091.14 C 1517.92 1091.99 1516.87 1091.2 1518.45 1093.56 C 1519.33 1101.25 1519.92 1132.4 1518.05 1139.21 L 1516.48 1139.89 L 1514.47 1137.55 C 1510.36 1139.79 1510.21 1139.95 1505.66 1139.86 C 1499.54 1132.58 1497.25 1116.55 1503.39 1108.16 C 1507.86 1102.06 1510.62 1107.26 1514.7 1107.14 C 1515.27 1101.63 1515.18 1096.65 1515.18 1091.14 z"/>
<path transform="translate(0,0)" fill="rgb(25,27,44)" d="M 1507.91 1109.38 C 1509.91 1110.06 1510.98 1110.68 1512.9 1111.63 C 1517.49 1118.05 1516.64 1130.2 1510.93 1136.01 C 1500.76 1131.16 1502.35 1117.14 1507.91 1109.38 z"/>
<path transform="translate(0,0)" fill="rgb(170,180,192)" d="M 1611.86 1104.82 C 1629.57 1106.83 1628.38 1130.26 1617.17 1140.32 C 1599.53 1139.99 1600.05 1114.98 1611.86 1104.82 z"/>
<path transform="translate(0,0)" fill="rgb(25,27,44)" d="M 1612.05 1109.46 C 1625.44 1110.74 1621.26 1127.85 1616.77 1135.72 C 1604.3 1134.88 1607.17 1117.07 1612.05 1109.46 z"/>
<path transform="translate(0,0)" fill="rgb(170,180,192)" d="M 265.05 1104.86 C 282.363 1105.92 282.028 1130.94 270.177 1140.47 C 252.971 1139.35 253.973 1114.67 265.05 1104.86 z"/>
<path transform="translate(0,0)" fill="rgb(25,27,44)" d="M 264.973 1109.5 C 278.158 1110.65 275.164 1127.76 269.867 1135.69 C 257.675 1134.46 260.524 1116.95 264.973 1109.5 z"/>
<path transform="translate(0,0)" fill="rgb(170,180,192)" d="M 1212.86 1104.77 C 1230.27 1106.44 1228.78 1131.3 1217.25 1140.72 C 1200.54 1139.03 1201.04 1113.37 1212.86 1104.77 z"/>
<path transform="translate(0,0)" fill="rgb(25,27,44)" d="M 1212.91 1109.38 C 1218.76 1109.95 1220.65 1112.96 1221.41 1118.54 C 1222.29 1124.54 1220.76 1130.63 1217.14 1135.49 C 1204.58 1135.18 1208.71 1116.39 1212.91 1109.38 z"/>
<path transform="translate(0,0)" fill="rgb(170,180,192)" d="M 1449.9 1104.75 C 1466.79 1105.9 1466.78 1130.1 1454.99 1140.24 C 1438.07 1139.82 1438.46 1115 1449.9 1104.75 z"/>
<path transform="translate(0,0)" fill="rgb(25,27,44)" d="M 1450.86 1109.37 C 1462.31 1111.52 1460.82 1128.43 1454.01 1135.89 C 1443.2 1132.54 1444.05 1116.61 1450.86 1109.37 z"/>
<path transform="translate(0,0)" fill="rgb(170,180,192)" d="M 315.932 1104.77 C 332.522 1106.61 331.472 1131.19 319.971 1140.76 C 303.195 1138.91 303.567 1113.66 315.932 1104.77 z"/>
<path transform="translate(0,0)" fill="rgb(25,27,44)" d="M 315.899 1109.44 C 327.936 1111.19 325.389 1128.61 319.415 1136.2 C 314.091 1134.84 312.238 1131.64 311.529 1126.43 C 310.653 1120.41 312.227 1114.29 315.899 1109.44 z"/>
<path transform="translate(0,0)" fill="rgb(170,180,192)" d="M 194.025 1104.8 C 211.011 1105.61 210.313 1130.37 199.163 1140.25 C 181.72 1139.75 183.137 1114.61 194.025 1104.8 z"/>
<path transform="translate(0,0)" fill="rgb(25,27,44)" d="M 194.942 1109.34 C 206.585 1111.69 204.215 1128.36 198.023 1135.86 C 187.47 1132.98 188.595 1116.35 194.942 1109.34 z"/>
<path transform="translate(0,0)" fill="rgb(170,180,192)" d="M 930.012 1104.69 C 946.3 1107.03 945.301 1130.49 934.063 1140.34 C 917.249 1139.29 917.414 1113.68 930.012 1104.69 z"/>
<path transform="translate(0,0)" fill="rgb(25,27,44)" d="M 929.006 1109.53 C 931.482 1109.78 931.7 1109.98 934.057 1110.9 C 940.451 1117.53 938.488 1127.69 934.627 1135.15 C 921.523 1135.7 924.656 1116.67 929.006 1109.53 z"/>
<path transform="translate(0,0)" fill="rgb(97,121,133)" d="M 1691.65 964.932 C 1707.1 965.027 1700.17 972.101 1710.6 975.451 L 1712.33 974.265 C 1713.65 969.917 1713.58 966.626 1718.38 966.268 L 1720.41 968.412 C 1723.2 977.348 1719.71 983.572 1712.09 988.487 C 1699.68 987.065 1702.93 979.674 1694.57 976.531 L 1692.9 977.747 C 1691.4 981.435 1690.58 984.882 1686.65 986.113 L 1684.73 984.851 C 1680.66 976.332 1684.15 969.754 1691.65 964.932 z"/>
<path transform="translate(0,0)" fill="rgb(170,180,192)" d="M 1212.8 1333.75 L 1218.6 1334.05 C 1227.29 1338.63 1227.07 1358.53 1224.34 1366.72 C 1219.97 1370.01 1211.26 1368.93 1207.33 1363.94 C 1206.26 1351.38 1207.84 1350.74 1219.75 1347.42 C 1221.56 1344.56 1221.38 1342.06 1219.44 1339.43 C 1215.69 1338.9 1211.96 1341.15 1208.34 1342.74 L 1207.56 1341.73 C 1208.67 1337.32 1209.36 1337.06 1212.8 1333.75 z"/>
<path transform="translate(0,0)" fill="rgb(25,27,44)" d="M 1214.63 1351.62 L 1219.05 1352.05 C 1221.62 1354.66 1220.79 1353.13 1221.45 1356.9 C 1220.24 1361.25 1220.06 1361.34 1216.68 1364.54 C 1212.7 1363.32 1212.2 1362.62 1210.88 1359.06 C 1211.55 1355.04 1211.91 1354.87 1214.63 1351.62 z"/>
<path transform="translate(0,0)" fill="rgb(170,180,192)" d="M 1261.08 1333.8 C 1264.2 1333.78 1264.32 1333.85 1267.39 1334.58 C 1274.42 1340.08 1275.57 1360.13 1271.75 1367.42 C 1266.26 1370.2 1258.52 1368.92 1254.8 1363.59 L 1254.8 1362.33 L 1254.82 1360.43 C 1254.87 1348.67 1258.59 1350.2 1267.97 1347.09 C 1269.07 1343.5 1269.77 1341.36 1266.88 1338.88 C 1263.08 1338.89 1259.99 1340.95 1256.56 1342.72 L 1255.48 1342.25 C 1256.79 1337.41 1257.19 1337.3 1261.08 1333.8 z"/>
<path transform="translate(0,0)" fill="rgb(25,27,44)" d="M 1261.81 1351.36 L 1266.07 1351.76 C 1269.18 1354.05 1268.12 1352.59 1269.29 1356.34 C 1268.63 1360.57 1268.47 1360.69 1265.88 1364.23 C 1261.33 1363.89 1260.43 1363.62 1258.77 1359.61 C 1258.99 1355.53 1259.62 1355.02 1261.81 1351.36 z"/>
<path transform="translate(0,0)" fill="rgb(170,180,192)" d="M 1073.83 1333.74 C 1078.23 1333.84 1082.39 1334.14 1084 1338.95 C 1086.67 1346.95 1088.27 1359.44 1084.93 1367.23 C 1081.33 1368.88 1076.82 1368.11 1072.83 1368.01 C 1070.37 1367.94 1068.6 1364.63 1067.3 1362.46 C 1067.23 1349.57 1070.15 1351.1 1080.97 1346.95 C 1081.7 1343.6 1082.5 1341.15 1079.72 1338.62 C 1075.92 1338.6 1072.34 1341.34 1068.92 1343.36 L 1068.34 1342.25 C 1069.54 1337.35 1069.91 1337.25 1073.83 1333.74 z"/>
<path transform="translate(0,0)" fill="rgb(25,27,44)" d="M 1074.96 1351.71 C 1079.67 1351.64 1079.96 1351.35 1081.71 1355.34 C 1081.22 1359.51 1080.64 1360.12 1078.61 1363.94 C 1074.08 1363.91 1073.27 1363.45 1071.64 1359.57 C 1072.09 1355.34 1072.31 1355.22 1074.96 1351.71 z"/>
<path transform="translate(0,0)" fill="rgb(170,180,192)" d="M 1404.88 1104.85 C 1407.52 1105.34 1411.1 1105.9 1412.39 1108.5 C 1415.82 1115.34 1416.41 1130.76 1414.3 1137.83 C 1411.56 1140.32 1408.43 1138.75 1404.27 1139.31 C 1400.84 1139.77 1399.38 1137.58 1397.09 1135.37 C 1396.1 1114.41 1403.39 1124.39 1410.4 1117.25 C 1410.86 1113.26 1411.1 1115.18 1409.39 1111.32 C 1406.25 1109.38 1407.86 1109.62 1404.44 1110.33 C 1402.22 1112.8 1400.22 1116.19 1396.82 1114.38 L 1397.46 1112.48 L 1398.02 1115 L 1397.12 1113.02 C 1399.26 1108.65 1400.81 1107.21 1404.88 1104.85 z"/>
<path transform="translate(0,0)" fill="rgb(25,27,44)" d="M 1405.02 1122.44 L 1408.57 1122.96 C 1411.3 1125.24 1410.39 1123.83 1411.26 1127.4 C 1410.16 1131.85 1409.88 1131.98 1406.77 1135.52 L 1403.58 1134.78 C 1400.64 1132.14 1401.5 1133.71 1400.7 1130.03 C 1401.57 1125.94 1402.1 1125.69 1405.02 1122.44 z"/>
<path transform="translate(0,0)" fill="rgb(170,180,192)" d="M 1763.92 1104.82 C 1766.71 1105.01 1769.9 1105.01 1771.77 1107.32 C 1776.36 1112.98 1778.33 1134.05 1773.28 1139.23 C 1765 1139.63 1763.7 1140.99 1758.22 1136.24 C 1757.4 1129.5 1756.03 1122.02 1764.23 1120.8 C 1769.15 1120.07 1773.06 1115.5 1770.41 1110.68 C 1766.98 1110.45 1763.54 1112.65 1759.25 1113.8 L 1758.65 1112.35 C 1759.51 1108.24 1760.59 1107.82 1763.92 1104.82 z"/>
<path transform="translate(0,0)" fill="rgb(25,27,44)" d="M 1766.04 1122.44 C 1767.1 1122.56 1768.8 1122.97 1769.9 1123.2 C 1773.52 1128.69 1770.36 1132.66 1766.21 1136.59 C 1762.94 1133.96 1761.97 1133.18 1761.42 1129.22 C 1762.43 1125.55 1763.33 1125.07 1766.04 1122.44 z"/>
<path transform="translate(0,0)" fill="rgb(170,180,192)" d="M 919.429 1333.89 C 932.494 1333.34 931.325 1343.16 931.965 1353.08 C 930.137 1353.04 928.309 1353.03 926.48 1353.02 C 920.795 1352.96 919.485 1352.66 916.031 1357.51 L 916.411 1359.66 C 921.503 1364.98 924.199 1364.44 929.529 1360.65 L 930.521 1360.65 C 930.798 1362.89 931.105 1363.47 929.134 1365.96 C 927.55 1367.92 925.141 1369.04 922.617 1368.98 C 907.988 1368.48 910.141 1343.15 919.429 1333.89 z"/>
<path transform="translate(0,0)" fill="rgb(25,27,44)" d="M 920.221 1338.29 C 924.746 1338.81 924.563 1339.36 927.071 1342.37 C 927.824 1345.9 928.019 1345.71 926.624 1348.98 C 922.307 1348.8 920.002 1349.23 917.13 1346.5 C 916.84 1343.19 918.496 1341.27 920.221 1338.29 z"/>
<path transform="translate(0,0)" fill="rgb(170,180,192)" d="M 957.016 1333.61 C 960.344 1333.61 960.571 1333.77 963.682 1334.56 C 977.055 1349.13 970.103 1352.52 954.667 1353.63 C 953.288 1356.09 953.545 1356.09 953.749 1358.99 C 957.406 1365.18 961.29 1364.12 966.414 1361.31 L 967.814 1361.61 C 968.11 1365.63 964.393 1369.42 961.328 1369.07 C 943.887 1367.11 947.92 1342.3 957.016 1333.61 z"/>
<path transform="translate(0,0)" fill="rgb(25,27,44)" d="M 956.97 1338.29 C 962.151 1339.25 966.364 1341.33 964.807 1347.36 L 962.75 1348.48 C 958 1348.48 958.048 1349.24 954.65 1347.16 C 954.192 1342.97 955.097 1342.8 956.97 1338.29 z"/>
<path transform="translate(0,0)" fill="rgb(170,180,192)" d="M 1741.89 1104.79 C 1754.05 1106.44 1753.17 1114.47 1753.75 1124.22 C 1748.85 1124.02 1744.41 1123.25 1740.22 1125.42 C 1737.76 1128.43 1738.14 1126.85 1738.18 1130.06 C 1742.27 1136.08 1745.29 1136.02 1750.74 1132.71 L 1751.5 1132.28 L 1752.53 1132.94 C 1751.11 1147.04 1730.47 1139.53 1733.94 1122.9 C 1735.94 1113.28 1733.23 1112.62 1741.89 1104.79 z"/>
<path transform="translate(0,0)" fill="rgb(25,27,44)" d="M 1742.08 1109.35 C 1746.59 1110.24 1747.9 1111.54 1749.52 1115.83 C 1748.91 1119.36 1749.77 1118.02 1747 1120.08 C 1742.83 1120.21 1740.8 1121.14 1738.31 1117.7 C 1738.7 1114.06 1740.13 1112.45 1742.08 1109.35 z"/>
<path transform="translate(0,0)" fill="rgb(170,180,192)" d="M 146.88 1104.58 C 158.716 1106.32 157.963 1114.53 159.058 1124.23 C 153.206 1123.93 143.363 1121.92 142.883 1129.99 C 145.994 1135.55 149.373 1136.2 154.525 1133.2 L 155.44 1132.5 L 156.789 1132.99 C 156.818 1134.42 156.74 1137.18 155.274 1137.9 C 134.498 1148.11 134.748 1115.4 146.88 1104.58 z"/>
<path transform="translate(0,0)" fill="rgb(25,27,44)" d="M 147.223 1109.41 C 151.421 1110.24 152.438 1111.6 154.204 1115.39 C 153.732 1119.25 154.59 1117.78 151.883 1120.12 C 147.654 1120.06 146.14 1120.83 143.348 1117.63 C 143.573 1114.06 145.189 1112.4 147.223 1109.41 z"/>
<path transform="translate(0,0)" fill="rgb(170,180,192)" d="M 800.952 1104.71 C 808.032 1106 810.39 1109.66 813.244 1116.24 C 816.511 1123.76 802.557 1124.98 798.075 1125.78 C 796.413 1128.69 796.919 1127.12 796.874 1130.75 C 801.439 1136.43 804.418 1135.2 809.534 1131.84 L 811.081 1132.48 C 811.134 1134.37 811.115 1136.35 809.527 1137.28 C 794.525 1146.1 791.629 1130.09 792.86 1120.17 C 794.075 1110.37 795.035 1109.72 800.952 1104.71 z"/>
<path transform="translate(0,0)" fill="rgb(25,27,44)" d="M 801.07 1109.4 C 804.964 1110.58 805.226 1110.95 807.312 1114.38 C 807.488 1118.43 808.018 1116.65 805.75 1119.92 C 801.57 1120.09 799.206 1121 796.991 1117.27 C 797.469 1113.97 799.146 1112.18 801.07 1109.4 z"/>
<path transform="translate(0,0)" fill="rgb(170,180,192)" d="M 1925.95 1104.69 C 1933.44 1105.56 1939.23 1112.3 1938.25 1119.67 C 1934.38 1124.67 1929.44 1124.53 1923.2 1125.47 C 1922.35 1128.77 1922.16 1128.6 1923.22 1131.77 C 1928.08 1137.01 1931.43 1134.57 1935.58 1131.08 C 1936.54 1134.83 1935.98 1135.38 1934.45 1138.16 C 1922.37 1145.8 1907.28 1121.4 1925.95 1104.69 z"/>
<path transform="translate(0,0)" fill="rgb(25,27,44)" d="M 1926.08 1109.38 C 1930.13 1110.1 1931.33 1111.3 1933.15 1114.89 C 1933.03 1118.75 1933.6 1117.1 1931.74 1120.16 C 1927.2 1120.24 1925.31 1121.06 1922.64 1117.25 C 1922.97 1113.55 1924.06 1112.47 1926.08 1109.38 z"/>
<path transform="translate(0,0)" fill="rgb(170,180,192)" d="M 1262.08 1104.81 C 1274.28 1105.69 1273.49 1114.73 1274.26 1124.21 C 1268.72 1124.03 1258.8 1122.3 1258.64 1130.12 C 1261.94 1135.92 1265.53 1136.15 1270.54 1133.15 L 1271.44 1132.34 L 1272.55 1132.62 C 1272.61 1136.32 1272.97 1134.52 1270.85 1138.06 C 1254.54 1148.95 1247.85 1118.13 1262.08 1104.81 z"/>
<path transform="translate(0,0)" fill="rgb(25,27,44)" d="M 1262.86 1109.43 C 1266.91 1110.24 1268.16 1111.6 1269.58 1115.4 C 1268.92 1119.45 1269.8 1117.78 1266.93 1120.62 C 1262.43 1120.38 1261.09 1121.18 1258.92 1117.23 C 1259.41 1113.95 1260.99 1112.21 1262.86 1109.43 z"/>
<path transform="translate(0,0)" fill="rgb(170,180,192)" d="M 1533.23 1104.58 C 1544.08 1106.74 1543.09 1115.14 1543.75 1124.23 C 1538.22 1124.01 1526.93 1122.46 1527.98 1131.2 C 1533.73 1137.1 1536.97 1134.12 1541.97 1130.49 C 1543.28 1134.14 1542.52 1135.6 1540.51 1138.46 C 1526.99 1145.03 1513.51 1120.27 1533.23 1104.58 z"/>
<path transform="translate(0,0)" fill="rgb(25,27,44)" d="M 1532.05 1109.44 C 1536.51 1110.13 1537.45 1110.69 1539.26 1114.84 C 1539.21 1117.86 1539.45 1117.81 1537.74 1120.23 C 1533.63 1120.17 1531.75 1120.85 1529.01 1117.66 C 1528.88 1114.2 1530.32 1112.48 1532.05 1109.44 z"/>
<path transform="translate(0,0)" fill="rgb(170,180,192)" d="M 506.769 1093.89 C 513.513 1093.21 516.929 1094.48 520.931 1100.01 C 521.666 1104.22 521.811 1102.18 520.269 1106.33 C 516.652 1105.77 514.398 1098.7 508.38 1098.24 C 505.478 1100.14 506.351 1099.65 504.646 1103.32 C 504.707 1111.88 517.797 1115.86 521.249 1123.86 C 524.672 1131.78 519.121 1137.45 512.332 1140.54 C 511.385 1140.39 510.442 1140.21 509.504 1140.01 C 503.506 1138.71 498.329 1132.58 499.807 1126.51 C 502.753 1127.04 505.066 1131.95 509.992 1135.06 C 512.382 1134.84 514.092 1134.86 515.768 1132.75 C 522.619 1124.1 505.875 1117.73 502.247 1112.08 C 497.285 1104.36 501.314 1098.72 506.769 1093.89 z"/>
<path transform="translate(0,0)" fill="rgb(170,180,192)" d="M 994.149 1333.79 C 1006.68 1334.24 1005.94 1343.11 1006.48 1353.02 C 1000.69 1352.83 991.282 1351.09 990.817 1359.03 C 995.022 1364.98 998.157 1364.58 1003.52 1361.07 L 1003.95 1360.82 L 1004.97 1361.36 C 1004.86 1365.5 1005.39 1363.58 1003.1 1367.26 C 987.644 1377.39 980.374 1347.49 994.149 1333.79 z"/>
<path transform="translate(0,0)" fill="rgb(25,27,44)" d="M 996.335 1337.38 C 1000.7 1339.39 1002.7 1342.94 1001.6 1347.65 L 998.907 1349.13 C 994.548 1349.02 992.936 1349.7 991.264 1345.53 C 992.412 1341.55 993.589 1340.66 996.335 1337.38 z"/>
<path transform="translate(0,0)" fill="rgb(170,180,192)" d="M 1845.98 1104.72 C 1857.72 1107.07 1856.97 1114.41 1857.33 1124.19 L 1852.54 1124.12 C 1846.43 1123.99 1845.12 1123.35 1841.37 1128.5 L 1841.77 1130.9 C 1846.96 1136.44 1849.5 1136.26 1855.18 1132.12 L 1856.24 1132.57 L 1856.62 1134.57 C 1854.55 1138.75 1851.67 1140.45 1847.16 1140.86 C 1834.06 1136.83 1835.74 1114.19 1845.98 1104.72 z"/>
<path transform="translate(0,0)" fill="rgb(25,27,44)" d="M 1846.17 1109.36 C 1850.34 1110.63 1851.78 1111.79 1853.26 1115.93 C 1852.64 1119.25 1853.4 1117.88 1850.86 1120.15 C 1846.99 1120.17 1844.71 1120.87 1842.34 1117.65 C 1842.66 1114.07 1844.2 1112.39 1846.17 1109.36 z"/>
<path transform="translate(0,0)" fill="rgb(170,180,192)" d="M 1125.9 1104.66 C 1133.76 1106.92 1139.86 1116.19 1135.41 1123.59 C 1131.44 1125.81 1128.02 1123.21 1122.37 1124.46 C 1120.03 1128.67 1122.4 1132.98 1126.47 1135.06 C 1131.26 1134.3 1130.16 1134.14 1134.52 1130.66 C 1135.52 1134.3 1135.09 1136.26 1132.65 1139.06 C 1119.39 1144.93 1106.95 1117.12 1125.9 1104.66 z"/>
<path transform="translate(0,0)" fill="rgb(25,27,44)" d="M 1125.16 1110.64 C 1127.72 1109.77 1130.52 1110.98 1131.64 1113.44 C 1132.77 1115.89 1131.86 1118.8 1129.53 1120.18 C 1127.8 1121.2 1125.63 1121.15 1123.94 1120.04 C 1122.26 1118.93 1121.36 1116.96 1121.62 1114.96 C 1121.87 1112.96 1123.25 1111.28 1125.16 1110.64 z"/>
<path transform="translate(0,0)" fill="rgb(170,180,192)" d="M 1172.75 1093.85 C 1180.57 1093.48 1189.79 1096.87 1186.4 1106.42 L 1185.21 1106.77 C 1181.82 1102.54 1179.7 1098.01 1174.02 1098.48 C 1171.39 1100.54 1171.44 1101.1 1170.05 1104.11 C 1171.22 1115.48 1202.88 1123.1 1180.26 1140.3 C 1172.51 1140.3 1167.37 1137.06 1163.96 1129.77 C 1164.55 1126.9 1163.87 1128.17 1166.74 1126.24 L 1168.33 1126.75 C 1170.1 1130.15 1170.7 1131.93 1173.64 1134.44 C 1177.65 1135.86 1182.88 1134.42 1184.73 1130.48 C 1182.22 1119.02 1152.62 1110.69 1172.75 1093.85 z"/>
<path transform="translate(0,0)" fill="rgb(170,180,192)" d="M 1068.12 1093.21 L 1070.56 1094.14 C 1075.66 1101.67 1067.3 1126.28 1075.42 1134.49 C 1093.06 1141.51 1082.54 1100.32 1087.17 1094.15 L 1089.17 1094.87 L 1089.78 1096.92 C 1089.82 1102.84 1091.29 1127.87 1088.15 1133.84 C 1081.8 1145.91 1068.44 1140.26 1067.82 1126.12 C 1067.38 1116.04 1067.81 1104.17 1068.12 1093.21 z"/>
<path transform="translate(0,0)" fill="rgb(170,180,192)" d="M 1379.93 1092.97 C 1386.21 1094.07 1391.76 1098.53 1393.18 1104.91 C 1392.11 1107.64 1392.91 1106.52 1390.41 1108.08 C 1385.21 1105.27 1388.72 1098.68 1380.12 1098.17 C 1370.88 1103.55 1369.48 1129.86 1380.52 1135.24 C 1383.5 1135.34 1384.11 1134.39 1386.6 1132.59 C 1387.27 1129.21 1387.25 1127.66 1389.52 1125.06 L 1390.87 1125.5 C 1392.37 1132.97 1387.68 1141.75 1379.51 1139.79 C 1366.34 1136.62 1367.93 1113.24 1370.84 1103.4 C 1372.59 1097.49 1374.78 1095.6 1379.93 1092.97 z"/>
<path transform="translate(0,0)" fill="rgb(170,180,192)" d="M 526.258 1102.4 C 526.143 1098.84 525.658 1095.93 527.066 1092.74 L 528.147 1092.39 C 531.387 1098.66 530.575 1107.73 529.62 1114.67 L 530.282 1117.67 L 531.261 1117.96 C 536.863 1111.92 538.219 1106.77 544.922 1100.54 C 542.688 1109.09 540.176 1112.33 535.606 1119.95 C 538.222 1124.74 543.641 1133.09 542.751 1138.27 L 541.03 1137.7 C 536.388 1133.39 534.285 1127.6 531.592 1121.8 C 530.677 1128.89 531.368 1130.04 528.965 1137.57 L 527.736 1138.16 C 525.141 1131.3 526.142 1110.58 526.258 1102.4 z"/>
<path transform="translate(0,0)" fill="rgb(170,180,192)" d="M 526.258 1102.4 C 526.143 1098.84 525.658 1095.93 527.066 1092.74 L 528.147 1092.39 C 531.387 1098.66 530.575 1107.73 529.62 1114.67 L 528.383 1117.97 C 527.456 1116.73 527.124 1105.83 526.258 1102.4 z"/>
<path transform="translate(0,0)" fill="rgb(170,180,192)" d="M 586.709 1104.76 C 592.182 1105.78 593.283 1106.61 597.144 1110.59 C 598.025 1113.74 598.202 1112.31 596.884 1115.05 C 592.676 1117.28 594.234 1111.02 587.885 1110.01 C 584.744 1112.3 585.645 1110.85 584.708 1114.26 C 588.052 1122.02 610.245 1129.03 590.18 1140.64 C 584.947 1139.75 578.781 1136.34 578.764 1130.5 L 580.617 1129.23 C 583.602 1129.54 583.863 1131.13 586.535 1134.25 C 590.173 1135.34 588.307 1135.27 592.312 1133.86 L 593.088 1132.17 C 589.492 1122.91 570.016 1116.87 586.709 1104.76 z"/>
<path transform="translate(0,0)" fill="rgb(170,180,192)" d="M 1426.9 1104.7 C 1431.82 1105.09 1436.73 1107.37 1438.42 1112.31 C 1437.41 1115.11 1438.27 1114.04 1435.8 1115.66 C 1433.53 1113.23 1432.34 1111.37 1429.18 1110.54 C 1425.44 1111.66 1426.63 1110.56 1424.96 1113.32 C 1427.8 1120.93 1449.43 1128.67 1431.39 1140.54 C 1423.89 1139.77 1420.51 1137.72 1420.14 1129.62 C 1423.88 1129.14 1425.43 1136.06 1433.19 1133.88 C 1438.92 1126.15 1408.64 1120.78 1426.9 1104.7 z"/>
<path transform="translate(0,0)" fill="rgb(170,180,192)" d="M 338.942 1104.87 C 344.213 1105.26 345.484 1105.93 348.992 1109.44 C 350.274 1113.31 350.278 1111.47 349.394 1115.13 C 345.851 1114.97 345.179 1111.67 339.532 1110.03 L 337.881 1111.2 L 337.264 1114.98 C 340.611 1122.34 362.669 1127.49 343.42 1140.64 C 337.077 1139.87 330.819 1136.97 332.418 1129.6 L 333.788 1129.26 C 337.042 1132.26 339.621 1135.93 344.071 1135.17 C 346.323 1131.66 345.842 1133.48 346.022 1129.67 C 341.36 1121.08 322.309 1119.88 338.942 1104.87 z"/>
<path transform="translate(0,0)" fill="rgb(170,180,192)" d="M 1162.94 1333.4 C 1170.33 1337.36 1161.11 1360.82 1170.94 1364.36 C 1179.73 1359.96 1175.48 1344.56 1176.43 1335.27 L 1177.76 1334.23 L 1179.64 1335.57 L 1179.99 1338.75 C 1179.98 1345.32 1180.93 1361.8 1179.54 1367.36 C 1175.26 1369.99 1179.46 1365.25 1171.27 1368.27 L 1169.49 1368.94 C 1158.31 1366.32 1161.3 1342.05 1162.94 1333.4 z"/>
<path transform="translate(0,0)" fill="rgb(170,180,192)" d="M 1096.77 1333.75 C 1102.26 1333.93 1106.05 1334.83 1109.22 1339.95 C 1108.8 1343.17 1109.43 1341.73 1106.85 1344.22 L 1105.36 1343.98 C 1103.14 1340.82 1102.51 1338.53 1098.62 1338.41 C 1095.44 1340.65 1096.35 1339.22 1095.31 1342.5 C 1098.86 1350.61 1120.5 1356.59 1102.07 1369.34 C 1096.8 1368.61 1093.31 1367.18 1090.91 1362.05 C 1091.36 1358.87 1090.67 1360.13 1092.76 1358.01 C 1097.69 1361.67 1095.43 1362.49 1100.48 1363.75 C 1103.74 1362.29 1102.48 1363.36 1104.51 1360.58 C 1102.79 1351.55 1082.01 1348.31 1096.77 1333.75 z"/>
<path transform="translate(0,0)" fill="rgb(170,180,192)" d="M 1787.85 1104.85 C 1791.46 1105.43 1793.3 1105.51 1795.98 1107.97 C 1797.56 1111.6 1798.69 1112.25 1797.77 1115.08 C 1794.45 1113.13 1791.01 1110.62 1787.29 1110.3 C 1784.78 1112.46 1785.74 1111.04 1785.4 1115.38 C 1789.57 1122.86 1810.94 1127.99 1791.74 1140.85 C 1787.33 1140.11 1778.16 1135.48 1780.77 1130.19 C 1782.17 1129.23 1781.66 1129.66 1783.93 1129.66 C 1785.46 1132.19 1785.95 1132.92 1787.83 1135.2 L 1790.49 1135.43 C 1794.39 1133.34 1793.43 1134.82 1794.53 1131.61 C 1790.75 1122.9 1770.48 1116.86 1787.85 1104.85 z"/>
<path transform="translate(0,0)" fill="rgb(170,180,192)" d="M 1473.87 1104.64 C 1478.79 1105.31 1480.76 1105.75 1483.76 1110.13 C 1484.41 1114.03 1484.76 1112.36 1483.52 1115.48 L 1481.43 1115.34 C 1479.63 1112.74 1479.33 1112.17 1477.01 1109.91 L 1474.91 1110 C 1471.61 1112.23 1472.46 1110.79 1471.48 1113.91 C 1475.23 1122.19 1495.88 1127.62 1478.33 1140.41 C 1472.17 1139.82 1471.08 1139.21 1467.19 1134.38 C 1466.45 1130.95 1466.27 1132.57 1467.79 1129.35 C 1469.14 1130.36 1470.51 1131.36 1471.88 1132.33 C 1474.85 1134.39 1476.17 1135.48 1479.31 1134.88 C 1480.85 1132.1 1480.37 1133.28 1480.33 1129.72 C 1475.94 1120.51 1456.82 1120.36 1473.87 1104.64 z"/>
<path transform="translate(0,0)" fill="rgb(170,180,192)" d="M 1011.57 1333.37 C 1012.83 1334.17 1014.07 1334.99 1015.31 1335.83 C 1018.89 1334.84 1021.07 1333.82 1024.64 1334.72 C 1031.34 1340.36 1030.37 1361.14 1026.55 1368.23 C 1024.61 1365.9 1025 1347.49 1024.97 1342.96 L 1024.06 1340.54 C 1021.22 1338.21 1022.83 1338.93 1018.94 1338.6 C 1010.66 1344.14 1017.34 1361.72 1014.26 1368.28 L 1012.31 1368.69 C 1010.11 1365.26 1010.83 1338.66 1011.57 1333.37 z"/>
<path transform="translate(0,0)" fill="rgb(170,180,192)" d="M 842.263 1104.76 L 843.999 1105.94 C 846.971 1114.15 841.658 1129.74 849.206 1135.82 L 851.845 1135.12 C 855.883 1126.88 853.847 1108.66 857.901 1105.55 C 858.956 1108.02 858.79 1108.01 858.782 1110.75 C 858.715 1116.93 860.596 1136.27 857.52 1139.6 C 849.792 1135.53 853.891 1141.44 845.12 1139.52 C 839.407 1134.29 839.636 1111.37 842.263 1104.76 z"/>
<path transform="translate(0,0)" fill="rgb(170,180,192)" d="M 1101.76 1104.85 C 1106.79 1105.52 1112.19 1107.53 1113.22 1113.07 C 1111.32 1115.69 1112.52 1115.14 1109.93 1115.57 C 1107.33 1111.8 1107.14 1110.07 1102.51 1110.15 C 1099.34 1112.05 1100.15 1110.74 1099.17 1113.65 C 1102.85 1121.62 1125.48 1129.48 1105.39 1140.64 C 1098.88 1139.76 1096.34 1137.01 1094.78 1130.88 L 1095.67 1129.57 L 1098.32 1129.88 C 1099.69 1131.94 1100.31 1132.8 1101.92 1134.67 C 1105.62 1135.41 1104.39 1135.23 1108.41 1133.81 C 1113.49 1125.89 1083.13 1121.52 1101.76 1104.85 z"/>
<path transform="translate(0,0)" fill="rgb(170,180,192)" d="M 880.999 1104.86 C 885.62 1105.21 892.758 1107.9 893.109 1113.11 C 890.962 1115.28 892.217 1114.85 889.492 1114.99 C 886.699 1111.52 886.638 1110.11 882.437 1110.08 C 879.225 1112.17 880.032 1110.8 879.189 1113.81 C 882.852 1121.82 904.637 1128.58 885.623 1140.78 C 879.23 1139.42 874.533 1137.58 875.092 1129.84 C 879.103 1128.19 879.292 1137.55 888.143 1133.67 C 893.02 1125.44 863.839 1121.83 880.999 1104.86 z"/>
<path transform="translate(0,0)" fill="rgb(170,180,192)" d="M 1588.96 1104.75 C 1592.76 1105.39 1593.74 1105.32 1597.02 1107.47 C 1598.74 1110.83 1598.87 1110.72 1599.08 1114.68 C 1595.41 1116.86 1595.51 1110.92 1588.81 1109.51 C 1586.64 1111.9 1587.31 1111.42 1586.72 1115.25 C 1591.03 1123 1612.27 1126.45 1593.37 1140.51 C 1588.47 1140.15 1582.4 1137.31 1581.35 1132.09 C 1583.15 1129.5 1581.98 1130.11 1584.51 1129.48 C 1586.75 1132.29 1586.82 1132.57 1589.81 1134.81 C 1592.87 1135.34 1592.8 1135.02 1595.69 1133.63 C 1599.87 1125.87 1570.49 1120.61 1588.96 1104.75 z"/>
<path transform="translate(0,0)" fill="rgb(170,180,192)" d="M 1879.97 1104.74 C 1885.45 1106.1 1888.4 1107.4 1889.06 1113.81 C 1886.48 1114.17 1885.63 1112.71 1882.74 1110.73 C 1879.11 1110.44 1879.36 1110.41 1875.92 1111.61 L 1875.57 1113.27 C 1882.87 1122.42 1900.4 1130.22 1881.66 1141.15 C 1876.72 1139.65 1869.88 1135.77 1871.98 1129.63 L 1873.43 1129.36 C 1876.02 1132.21 1876.26 1132.52 1879.33 1134.75 C 1883.15 1135.15 1881.25 1135.34 1885.15 1133.52 L 1885.67 1131.7 C 1881.74 1122.95 1861.27 1115.35 1879.97 1104.74 z"/>
<path transform="translate(0,0)" fill="rgb(170,180,192)" d="M 1559.27 1105.23 C 1561.15 1105.89 1560.62 1105.73 1562.28 1106.99 C 1564.22 1115.63 1560.11 1129.65 1565.71 1134.91 C 1569.37 1135.3 1567.71 1135.65 1570.87 1133.89 C 1575.48 1126.7 1571.79 1115.68 1573.66 1106.03 L 1575.01 1105.28 C 1577.4 1108.06 1576.51 1106.42 1576.91 1110.75 C 1576.99 1117.58 1577.67 1133.56 1575.56 1139.15 C 1573.18 1139.09 1566.71 1140.03 1565.9 1139.96 C 1555.71 1139.09 1559.07 1111.45 1559.27 1105.23 z"/>
<path transform="translate(0,0)" fill="rgb(170,180,192)" d="M 1712.24 1105.3 C 1719.85 1110.37 1717.74 1103.71 1725.78 1107.35 C 1730.61 1112.9 1730.65 1134.34 1727.45 1139.61 L 1726 1139.6 C 1724.39 1134.55 1725.01 1119.19 1725.05 1113.35 C 1722.53 1110.43 1722.19 1110.56 1719.4 1110.02 C 1711.29 1115.57 1717.41 1134.52 1714.01 1139.48 L 1712.14 1139.42 C 1710.13 1135.96 1711.31 1110.27 1712.24 1105.3 z"/>
<path transform="translate(0,0)" fill="rgb(170,180,192)" d="M 218.652 1104.84 C 223.683 1105.98 227.839 1108.39 229.011 1113.59 L 227.609 1115.59 L 226.06 1115.65 C 224.036 1113 222.958 1110.83 219.871 1109.91 C 216.675 1111.04 217.948 1110.1 215.919 1112.82 C 216.916 1120.39 243.755 1132.7 219.294 1141.21 C 215.162 1138.78 208.451 1134.72 212.099 1129.5 L 213.647 1129.53 C 215.57 1132.31 216.169 1133.6 219.046 1135.44 C 222.362 1135.25 224.175 1134.57 224.928 1131.27 C 221.182 1122.66 200.152 1116.33 218.652 1104.84 z"/>
<path transform="translate(0,0)" fill="rgb(170,180,192)" d="M 1283.97 1104.78 C 1289.44 1105.13 1294.38 1107.48 1295.83 1113.1 L 1294.49 1115.3 L 1293.17 1115.54 C 1290.66 1112.5 1289.34 1109.73 1285.3 1109.8 C 1282.33 1112.3 1283.08 1110.8 1282.45 1114.16 C 1286.15 1121.82 1307.57 1129.24 1288.19 1140.66 C 1283.12 1139.91 1276.64 1136.6 1278.27 1130.61 L 1280.05 1129.91 C 1282.11 1131.31 1283.4 1133.12 1285.02 1135.04 C 1288.27 1135.81 1286.55 1135.82 1290.3 1133.84 C 1294.72 1124.77 1267.38 1121.34 1283.97 1104.78 z"/>
<path transform="translate(0,0)" fill="rgb(170,180,192)" d="M 1283.87 1333.7 C 1289.75 1333.79 1296.47 1336.15 1295.57 1343.11 C 1292.39 1345.53 1290.95 1338.89 1284.5 1338.43 C 1282.45 1341.37 1283.09 1340.6 1282.66 1344.63 C 1286.62 1352.36 1305.21 1352.15 1291.48 1368.35 C 1284.54 1369.78 1275.41 1365.79 1279.58 1359.14 L 1281.23 1359.26 C 1283.86 1362.36 1284.92 1364.77 1289.09 1364.09 C 1291.99 1361.34 1291.23 1362.93 1292.09 1359.55 C 1288.21 1350.78 1268.85 1349.13 1283.87 1333.7 z"/>
<path transform="translate(0,0)" fill="rgb(170,180,192)" d="M 953.687 1104.87 C 958.968 1106.15 965.128 1108.43 962.887 1115.45 L 961.141 1115.44 C 959.147 1112.73 958.679 1111.62 955.596 1110.21 C 952.78 1110.51 952.856 1110.31 950.768 1112.15 C 951.72 1121.03 977.095 1129.87 955.575 1141.21 C 950.329 1139.11 946.035 1136.97 946.455 1130.42 C 949.811 1129.26 951.971 1135.36 958.18 1135.57 L 959.349 1133.83 C 960.42 1120.93 932.148 1118.22 953.687 1104.87 z"/>
<path transform="translate(0,0)" fill="rgb(170,180,192)" d="M 1040.34 1333.72 C 1046.33 1333.27 1049.44 1335.41 1052.64 1340.14 C 1052.99 1344.07 1053.33 1342.23 1051.36 1345.83 L 1049.75 1345.47 L 1046.31 1339.71 C 1042.92 1337.8 1044.47 1337.79 1041.51 1338.58 C 1036.95 1343.48 1037.07 1356.37 1040.46 1362.26 C 1044.14 1364.47 1042.12 1363.81 1046.93 1363.61 C 1048.42 1360.63 1048.43 1360.01 1051.06 1357.94 L 1052.26 1358.5 C 1052.32 1362.44 1049.16 1369.21 1045.47 1368.97 C 1028.44 1367.88 1032.57 1342.71 1040.34 1333.72 z"/>
<path transform="translate(0,0)" fill="rgb(170,180,192)" d="M 1185 1334.42 C 1190.75 1334.22 1197.58 1334.46 1203.43 1334.53 C 1200.52 1343.62 1194.49 1354.8 1190.12 1363.56 C 1196.25 1363.55 1201.32 1361.81 1203.59 1367.75 C 1197.78 1368.24 1189.54 1368.05 1183.52 1368.08 C 1187.56 1358.4 1193 1348.28 1197.79 1338.87 C 1193.07 1338.86 1189.21 1339.66 1185.5 1337.7 L 1185 1334.42 z"/>
<path transform="translate(0,0)" fill="rgb(170,180,192)" d="M 1130.3 1333.97 C 1139.57 1333.9 1140.61 1335.77 1142.58 1344.37 L 1141.89 1345.16 C 1138.85 1342.66 1136.12 1339.9 1132.38 1338.96 C 1125.17 1342.55 1124.32 1360.7 1135.1 1364.99 C 1136.8 1362.16 1137.58 1360.03 1140.51 1358.71 L 1141.84 1359.75 C 1141.59 1374.72 1121.22 1369.89 1123.52 1353.28 C 1124.79 1344.17 1122.85 1341.25 1130.3 1333.97 z"/>
<path transform="translate(0,0)" fill="rgb(170,180,192)" d="M 1949.06 1104.76 C 1955.45 1105.27 1960.81 1109.86 1959.81 1116.5 L 1958.51 1117.27 L 1955.76 1114.26 C 1952.96 1111.16 1951.61 1108.02 1947.65 1110.45 C 1944.42 1116.21 1943.41 1129.33 1948.23 1134.82 C 1951.93 1136 1950.11 1136.01 1953.9 1134.61 C 1955.44 1131.95 1956.04 1130.06 1958.83 1129.01 L 1959.66 1130.58 C 1958.72 1134.87 1956.5 1139.73 1951.37 1140.02 C 1948.56 1140.15 1945.85 1138.93 1944.1 1136.73 C 1937.76 1128.86 1939.98 1111.35 1949.06 1104.76 z"/>
<path transform="translate(0,0)" fill="rgb(170,180,192)" d="M 1678.44 1093.21 C 1684.49 1096.01 1682.02 1126.67 1681.95 1134.89 C 1688.63 1134.89 1694.94 1132.64 1697.77 1138.89 C 1691.49 1139.3 1684.2 1139.32 1677.82 1139.49 C 1677.83 1128.13 1677.15 1103.31 1678.44 1093.21 z"/>
<path transform="translate(0,0)" fill="rgb(170,180,192)" d="M 944.213 1318.4 C 947.574 1320.33 946.475 1319.02 948.101 1322.01 L 947.377 1323.99 C 939.181 1326.57 940.714 1331.1 946.142 1335.59 L 945.9 1338.19 C 943.891 1338.55 944.372 1338.39 942.434 1339.19 C 941.234 1344.77 941.835 1361.18 941.851 1367.85 L 940.76 1368.23 C 934.386 1366.56 939.648 1344.95 938.004 1339.19 C 937.553 1337.61 936.671 1339.96 934.509 1336.55 C 937.979 1329.67 938.473 1322.91 944.213 1318.4 z"/>
<path transform="translate(0,0)" fill="rgb(170,180,192)" d="M 1193.65 1096.22 C 1195.86 1097.32 1195.19 1096.79 1196.72 1098.64 C 1196.73 1101.2 1196.51 1102.25 1197.45 1104.62 C 1199.75 1105.51 1199.87 1105.45 1201.78 1106.95 L 1201.67 1109.07 C 1199.1 1110 1199.8 1109.62 1197.5 1111.15 C 1196.49 1117.01 1196.68 1127.66 1197.67 1133.79 C 1197.87 1135.01 1200.39 1133.55 1202.11 1138.91 C 1199.48 1139.94 1200.31 1139.67 1197.45 1139.95 C 1188.23 1134.63 1195.3 1118.36 1192.54 1110.6 L 1188.94 1109.05 L 1189.03 1106.89 L 1192.43 1105.02 C 1193.09 1101.78 1193.32 1099.52 1193.65 1096.22 z"/>
<path transform="translate(0,0)" fill="rgb(170,180,192)" d="M 910.468 1096.5 C 911.805 1097.06 911.993 1097.3 913.195 1098.13 C 913.638 1102.2 914.277 1102.78 916.442 1106.48 L 917.116 1107.61 C 911.424 1118.33 911.83 1122.02 915.508 1134.12 C 916.411 1137.09 918.129 1132.92 918.61 1140 L 914.428 1139.98 C 905.851 1134.77 910.815 1123.16 910.097 1114.48 C 909.641 1108.96 907.669 1112.68 906.174 1107.55 C 907.449 1106.46 908.389 1105.6 909.586 1104.42 C 909.259 1100.25 909.069 1100.31 910.468 1096.5 z"/>
<path transform="translate(0,0)" fill="rgb(170,180,192)" d="M 246.81 1096.27 C 247.575 1096.7 248.536 1097.51 249.265 1098.07 C 249.7 1101.59 249.869 1102.78 250.761 1106.18 L 253.376 1106.34 L 254.332 1107.44 C 253.22 1113.22 253.794 1107.3 250.035 1111.53 C 248.957 1118.09 249.573 1124.93 249.909 1131.64 C 250.069 1134.83 251.88 1135.13 254.507 1136.68 L 254.641 1139.7 C 240.778 1140.93 247.006 1121 245.75 1111.04 C 244.347 1110.4 242.956 1109.74 241.579 1109.05 L 241.894 1107.42 L 245.561 1105.56 C 246.018 1102.47 246.434 1099.37 246.81 1096.27 z"/>
<path transform="translate(0,0)" fill="rgb(170,180,192)" d="M 789.498 1322.92 L 790.95 1323.33 C 792.685 1327.41 792.055 1364.48 789.118 1368.28 C 787.39 1365.86 787.769 1364.26 787.808 1361.25 C 787.598 1351.12 788.662 1340.58 787.485 1330.66 C 784.286 1328.66 784.731 1333.23 779.788 1332.06 L 779.606 1329.98 C 782.288 1326.41 785.536 1325.12 789.498 1322.92 z"/>
<path transform="translate(0,0)" fill="rgb(170,180,192)" d="M 559.513 1091.24 L 562.087 1092.31 C 564.159 1097.03 563.725 1134.94 562.212 1140.52 L 560.546 1139.57 C 557.881 1136.01 559.264 1098.33 559.513 1091.24 z"/>
<path transform="translate(0,0)" fill="rgb(170,180,192)" d="M 292.096 1105.26 C 293.401 1106.09 293.464 1106.63 294.445 1108.07 L 293.811 1109.96 C 284.586 1114.58 287.403 1113.47 287.074 1123.23 C 286.86 1129.59 288.678 1136.18 284.434 1141.06 C 282.286 1136.86 282.463 1111.44 283.673 1106.36 L 285.13 1105.83 L 287.559 1107.82 L 292.096 1105.26 z"/>
<path transform="translate(0,0)" fill="rgb(170,180,192)" d="M 570.743 1091.23 L 573.276 1092.79 C 574.646 1099.03 574.804 1135.16 572.797 1140.31 C 568.658 1137.11 570.25 1098.26 570.743 1091.23 z"/>
<path transform="translate(0,0)" fill="rgb(170,180,192)" d="M 1230.25 1105.17 C 1231.45 1105.53 1240.38 1108.1 1240.36 1108.08 C 1233.97 1119.82 1233.9 1112.08 1234.03 1128.63 C 1234.08 1132.69 1234.7 1136.76 1232.45 1139.63 L 1230.62 1138.68 C 1229.71 1128.46 1230.16 1115.61 1230.25 1105.17 z"/>
<path transform="translate(0,0)" fill="rgb(170,180,192)" d="M 899.633 1333.43 L 902.388 1335.86 C 905.686 1335.14 907.015 1334.75 910.108 1335.91 C 908.726 1338.98 905.877 1340.3 902.951 1342.25 L 902.821 1359.25 C 902.802 1364.04 903.678 1364.08 901.273 1366.57 L 902.303 1366.56 C 901.935 1367.49 902.248 1366.94 900.996 1367.9 C 898.043 1361.68 898.522 1340.46 899.633 1333.43 z"/>
<path transform="translate(0,0)" fill="rgb(170,180,192)" d="M 1148 1333.56 L 1151.84 1336.15 C 1155.1 1334.5 1155.32 1333.86 1158.4 1335.37 C 1157.91 1338.88 1152.71 1341.53 1151.64 1345.16 C 1150.63 1348.56 1151.06 1355.52 1151.14 1359.16 C 1151.22 1362.25 1151.82 1366.03 1149.55 1368.11 L 1147.59 1367.21 C 1146.66 1359.91 1147.04 1340.94 1148 1333.56 z"/>
<path transform="translate(0,0)" fill="rgb(170,180,192)" d="M 1150.26 1105.22 C 1151.01 1105.69 1151.65 1106.74 1152.26 1107.53 L 1151.86 1109.39 C 1136.65 1118.27 1150.96 1130.69 1142.42 1140.75 C 1140.25 1136.5 1139.65 1108.6 1142.6 1105.8 C 1143.91 1106.69 1143.39 1106.27 1144.61 1107.39 L 1145.49 1108.19 L 1150.26 1105.22 z"/>
<path transform="translate(0,0)" fill="rgb(170,180,192)" d="M 974.186 1333.42 C 975.226 1333.89 976.678 1334.48 977.242 1335.19 C 978.861 1337.21 979.372 1333.57 984.103 1334.75 C 981.504 1343.97 977.46 1338.6 977.264 1354.69 C 977.34 1358.66 977.718 1364.26 975.667 1367.74 C 972.734 1361.01 973.676 1341.18 974.186 1333.42 z"/>
<path transform="translate(0,0)" fill="rgb(97,121,133)" d="M 1815.92 992.698 C 1827.08 992.837 1828.24 999.785 1822.69 1007.83 C 1811.31 1008.83 1811.03 1000.3 1815.92 992.698 z"/>
<path transform="translate(0,0)" fill="rgb(170,180,192)" d="M 754.43 1341.63 C 758.789 1341.92 759.909 1343.15 762.623 1346.17 L 767.031 1351.03 L 768.195 1350.52 L 770.915 1343.53 L 772.387 1343.15 C 775.488 1347.83 771.175 1353.23 768.007 1356.83 C 760.818 1353.48 762.45 1349.91 755.849 1346.44 C 752.034 1349.33 754.773 1352.87 751.028 1354.92 L 749.479 1353.64 C 748.821 1349.31 752.028 1344.92 754.43 1341.63 z"/>
<path transform="translate(0,0)" fill="rgb(170,180,192)" d="M 1058.64 1333.26 L 1060.86 1334.59 C 1063.12 1339.24 1061.75 1362.33 1061.52 1368.85 L 1058.84 1367.81 C 1056.65 1363.28 1057.66 1338.95 1058.64 1333.26 z"/>
<path transform="translate(0,0)" fill="rgb(170,180,192)" d="M 299.224 1104.78 C 300.206 1105.37 301.225 1105.68 301.414 1106.62 C 302.653 1112.79 302.767 1135.03 300.761 1140.25 C 295.941 1137.35 297.613 1110.24 299.224 1104.78 z"/>
<path transform="translate(0,0)" fill="rgb(170,180,192)" d="M 549.723 1104.35 L 551.663 1105.83 C 554.054 1112.29 552.836 1132.14 552.573 1140.07 L 550.154 1139.16 C 547.486 1135.25 548.717 1109.94 549.723 1104.35 z"/>
<path transform="translate(0,0)" fill="rgb(170,180,192)" d="M 235.253 1104.71 C 240.107 1107.67 238.443 1134.84 236.805 1140.34 L 235.196 1139.36 C 232.716 1135.11 233.984 1110.23 235.253 1104.71 z"/>
<path transform="translate(0,0)" fill="rgb(170,180,192)" d="M 865.665 1105.24 L 868.121 1106.26 C 870.124 1110.63 869.395 1135.21 868.026 1140.51 L 866.434 1139.53 C 863.909 1135.8 865.453 1110.86 865.665 1105.24 z"/>
<path transform="translate(0,0)" fill="rgb(170,180,192)" d="M 1246.09 1105.3 L 1247.88 1106.11 C 1250.37 1110.25 1249.32 1135.13 1248.29 1140.69 L 1246.47 1139.51 C 1244.05 1135.51 1245.17 1110.88 1246.09 1105.3 z"/>
<path transform="translate(0,0)" fill="rgb(170,180,192)" d="M 1701.76 1104.29 L 1703.54 1105.52 C 1705.76 1109.45 1704.66 1133.91 1704.52 1139.77 L 1702.22 1138.98 C 1699.7 1135.27 1700.8 1109.74 1701.76 1104.29 z"/>
<path transform="translate(0,0)" fill="rgb(170,180,192)" d="M 899.248 1104.48 L 901.029 1105.49 C 903.091 1109.87 902.46 1134.97 900.726 1140.29 L 899.223 1139.25 C 896.923 1134.96 898.776 1110.58 899.248 1104.48 z"/>
</svg>